<svg width="218" height="52" viewBox="0 0 218 52" fill="none" xmlns="http://www.w3.org/2000/svg">
<rect width="218" height="52" rx="26" fill="white"/>
<g clip-path="url(#clip0_802_146)">
<path d="M33.997 18.17C34.5827 18.3764 35.09 18.7594 35.4487 19.2663C35.8075 19.7732 36.0001 20.379 36 21V33C36 33.7956 35.6839 34.5587 35.1213 35.1213C34.5587 35.6839 33.7956 36 33 36H23C22.2044 36 21.4413 35.6839 20.8787 35.1213C20.3161 34.5587 20 33.7956 20 33V21C19.9999 20.379 20.1925 19.7732 20.5513 19.2663C20.91 18.7594 21.4173 18.3764 22.003 18.17C22.0468 19.2006 22.4871 20.1744 23.2319 20.8881C23.9767 21.6018 24.9685 22.0002 26 22H30C30.9912 22.0001 31.947 21.6322 32.6824 20.9676C33.4177 20.303 33.8801 19.3891 33.98 18.403L33.997 18.17ZM31 29H25C24.7348 29 24.4804 29.1054 24.2929 29.2929C24.1054 29.4804 24 29.7348 24 30C24 30.2652 24.1054 30.5196 24.2929 30.7071C24.4804 30.8946 24.7348 31 25 31H31C31.2652 31 31.5196 30.8946 31.7071 30.7071C31.8946 30.5196 32 30.2652 32 30C32 29.7348 31.8946 29.4804 31.7071 29.2929C31.5196 29.1054 31.2652 29 31 29ZM31 25H25C24.7348 25 24.4804 25.1054 24.2929 25.2929C24.1054 25.4804 24 25.7348 24 26C24 26.2652 24.1054 26.5196 24.2929 26.7071C24.4804 26.8946 24.7348 27 25 27H31C31.2652 27 31.5196 26.8946 31.7071 26.7071C31.8946 26.5196 32 26.2652 32 26C32 25.7348 31.8946 25.4804 31.7071 25.2929C31.5196 25.1054 31.2652 25 31 25ZM30 16C30.5304 16 31.0391 16.2107 31.4142 16.5858C31.7893 16.9609 32 17.4696 32 18C32 18.5304 31.7893 19.0391 31.4142 19.4142C31.0391 19.7893 30.5304 20 30 20H26C25.4696 20 24.9609 19.7893 24.5858 19.4142C24.2107 19.0391 24 18.5304 24 18C24 17.4696 24.2107 16.9609 24.5858 16.5858C24.9609 16.2107 25.4696 16 26 16H30Z" fill="#F9CD21"/>
</g>
<path d="M52.1953 33L57.4688 18.4492H60.0957L65.3496 33H62.9863L60.1738 24.8066C59.946 24.1165 59.6986 23.3548 59.4316 22.5215C59.1712 21.6882 58.8555 20.6562 58.4844 19.4258H59.0801C58.7155 20.6562 58.3997 21.6882 58.1328 22.5215C57.8659 23.3548 57.6152 24.1165 57.3809 24.8066L54.5195 33H52.1953ZM55.1152 29.2109V27.375H62.4297V29.2109H55.1152ZM69.0898 18.4492V33H66.9121V18.4492H69.0898ZM80.3105 33.2344C79.5228 33.2344 78.8132 33.1107 78.1816 32.8633C77.5501 32.6159 77.0391 32.2448 76.6484 31.75C76.2643 31.2552 76.043 30.64 75.9844 29.9043L78.0254 29.8555C78.0905 30.4154 78.3151 30.8451 78.6992 31.1445C79.0833 31.444 79.6074 31.5938 80.2715 31.5938C80.929 31.5938 81.4466 31.4603 81.8242 31.1934C82.2083 30.9199 82.4004 30.5781 82.4004 30.168C82.4004 29.8164 82.2669 29.5332 82 29.3184C81.7331 29.1035 81.3717 28.9473 80.916 28.8496L79.1875 28.4688C78.2174 28.2539 77.4818 27.8991 76.9805 27.4043C76.4792 26.9095 76.2285 26.278 76.2285 25.5098C76.2285 24.8978 76.3945 24.3574 76.7266 23.8887C77.0586 23.4199 77.5241 23.0553 78.123 22.7949C78.722 22.5345 79.4186 22.4043 80.2129 22.4043C80.9876 22.4043 81.6712 22.541 82.2637 22.8145C82.8626 23.0814 83.3346 23.4622 83.6797 23.957C84.0312 24.4453 84.2233 25.028 84.2559 25.7051L82.293 25.7539C82.2734 25.2656 82.0781 24.8587 81.707 24.5332C81.3424 24.2077 80.8509 24.0449 80.2324 24.0449C79.6465 24.0449 79.1777 24.1816 78.8262 24.4551C78.4746 24.7285 78.2988 25.0638 78.2988 25.4609C78.2988 25.8125 78.4323 26.0957 78.6992 26.3105C78.9661 26.5254 79.3372 26.6882 79.8125 26.7988L81.5703 27.1895C82.5729 27.4108 83.3118 27.7559 83.7871 28.2246C84.2624 28.6868 84.5 29.2956 84.5 30.0508C84.5 30.7018 84.3177 31.2682 83.9531 31.75C83.5951 32.2253 83.1003 32.5931 82.4688 32.8535C81.8372 33.1074 81.1178 33.2344 80.3105 33.2344ZM90.8184 33.2344C89.7897 33.2344 88.9043 33.0033 88.1621 32.541C87.4264 32.0788 86.86 31.4408 86.4629 30.627C86.0723 29.8132 85.877 28.8822 85.877 27.834C85.877 26.7728 86.0788 25.8353 86.4824 25.0215C86.8926 24.2012 87.459 23.5599 88.1816 23.0977C88.9108 22.6289 89.7507 22.3945 90.7012 22.3945C91.4173 22.3945 92.0684 22.5215 92.6543 22.7754C93.2467 23.0293 93.7546 23.3939 94.1777 23.8691C94.6074 24.3444 94.9362 24.9141 95.1641 25.5781C95.3984 26.2422 95.5156 26.9811 95.5156 27.7949V28.3809H86.834V26.8184H94.4316L93.5137 27.2969C93.5137 26.6523 93.3997 26.0924 93.1719 25.6172C92.944 25.1419 92.6217 24.7741 92.2051 24.5137C91.7884 24.2533 91.2904 24.123 90.7109 24.123C90.1445 24.123 89.6497 24.2533 89.2266 24.5137C88.8099 24.7741 88.4876 25.1419 88.2598 25.6172C88.0319 26.0859 87.918 26.6361 87.918 27.2676V28.1855C87.918 28.8431 88.0319 29.4225 88.2598 29.9238C88.4876 30.4251 88.8197 30.8158 89.2559 31.0957C89.6986 31.3691 90.2292 31.5059 90.8477 31.5059C91.2904 31.5059 91.681 31.4375 92.0195 31.3008C92.3646 31.1641 92.651 30.9753 92.8789 30.7344C93.1133 30.487 93.2793 30.1973 93.377 29.8652L95.3691 29.9238C95.2324 30.5749 94.9525 31.151 94.5293 31.6523C94.1061 32.1471 93.5755 32.5345 92.9375 32.8145C92.2995 33.0944 91.5931 33.2344 90.8184 33.2344ZM101.209 33.2344C100.421 33.2344 99.7116 33.1107 99.0801 32.8633C98.4486 32.6159 97.9375 32.2448 97.5469 31.75C97.1628 31.2552 96.9414 30.64 96.8828 29.9043L98.9238 29.8555C98.9889 30.4154 99.2135 30.8451 99.5977 31.1445C99.9818 31.444 100.506 31.5938 101.17 31.5938C101.827 31.5938 102.345 31.4603 102.723 31.1934C103.107 30.9199 103.299 30.5781 103.299 30.168C103.299 29.8164 103.165 29.5332 102.898 29.3184C102.632 29.1035 102.27 28.9473 101.814 28.8496L100.086 28.4688C99.1159 28.2539 98.3802 27.8991 97.8789 27.4043C97.3776 26.9095 97.127 26.278 97.127 25.5098C97.127 24.8978 97.293 24.3574 97.625 23.8887C97.957 23.4199 98.4225 23.0553 99.0215 22.7949C99.6204 22.5345 100.317 22.4043 101.111 22.4043C101.886 22.4043 102.57 22.541 103.162 22.8145C103.761 23.0814 104.233 23.4622 104.578 23.957C104.93 24.4453 105.122 25.028 105.154 25.7051L103.191 25.7539C103.172 25.2656 102.977 24.8587 102.605 24.5332C102.241 24.2077 101.749 24.0449 101.131 24.0449C100.545 24.0449 100.076 24.1816 99.7246 24.4551C99.373 24.7285 99.1973 25.0638 99.1973 25.4609C99.1973 25.8125 99.3307 26.0957 99.5977 26.3105C99.8646 26.5254 100.236 26.6882 100.711 26.7988L102.469 27.1895C103.471 27.4108 104.21 27.7559 104.686 28.2246C105.161 28.6868 105.398 29.2956 105.398 30.0508C105.398 30.7018 105.216 31.2682 104.852 31.75C104.493 32.2253 103.999 32.5931 103.367 32.8535C102.736 33.1074 102.016 33.2344 101.209 33.2344ZM111.111 33.2344C110.324 33.2344 109.614 33.1107 108.982 32.8633C108.351 32.6159 107.84 32.2448 107.449 31.75C107.065 31.2552 106.844 30.64 106.785 29.9043L108.826 29.8555C108.891 30.4154 109.116 30.8451 109.5 31.1445C109.884 31.444 110.408 31.5938 111.072 31.5938C111.73 31.5938 112.247 31.4603 112.625 31.1934C113.009 30.9199 113.201 30.5781 113.201 30.168C113.201 29.8164 113.068 29.5332 112.801 29.3184C112.534 29.1035 112.173 28.9473 111.717 28.8496L109.988 28.4688C109.018 28.2539 108.283 27.8991 107.781 27.4043C107.28 26.9095 107.029 26.278 107.029 25.5098C107.029 24.8978 107.195 24.3574 107.527 23.8887C107.859 23.4199 108.325 23.0553 108.924 22.7949C109.523 22.5345 110.219 22.4043 111.014 22.4043C111.788 22.4043 112.472 22.541 113.064 22.8145C113.663 23.0814 114.135 23.4622 114.48 23.957C114.832 24.4453 115.024 25.028 115.057 25.7051L113.094 25.7539C113.074 25.2656 112.879 24.8587 112.508 24.5332C112.143 24.2077 111.652 24.0449 111.033 24.0449C110.447 24.0449 109.979 24.1816 109.627 24.4551C109.275 24.7285 109.1 25.0638 109.1 25.4609C109.1 25.8125 109.233 26.0957 109.5 26.3105C109.767 26.5254 110.138 26.6882 110.613 26.7988L112.371 27.1895C113.374 27.4108 114.113 27.7559 114.588 28.2246C115.063 28.6868 115.301 29.2956 115.301 30.0508C115.301 30.7018 115.118 31.2682 114.754 31.75C114.396 32.2253 113.901 32.5931 113.27 32.8535C112.638 33.1074 111.919 33.2344 111.111 33.2344ZM117.176 33V22.6191H119.246V33H117.176ZM118.211 20.8613C117.84 20.8613 117.527 20.7376 117.273 20.4902C117.026 20.2428 116.902 19.9434 116.902 19.5918C116.902 19.2337 117.026 18.9342 117.273 18.6934C117.527 18.446 117.837 18.3223 118.201 18.3223C118.572 18.3223 118.885 18.446 119.139 18.6934C119.393 18.9342 119.52 19.2337 119.52 19.5918C119.52 19.9434 119.393 20.2428 119.139 20.4902C118.885 20.7376 118.576 20.8613 118.211 20.8613ZM126.082 33.2344C125.099 33.2344 124.233 33.0065 123.484 32.5508C122.742 32.0951 122.163 31.4603 121.746 30.6465C121.336 29.8327 121.131 28.8952 121.131 27.834C121.131 26.7598 121.336 25.8158 121.746 25.002C122.163 24.1882 122.742 23.5501 123.484 23.0879C124.233 22.6257 125.099 22.3945 126.082 22.3945C127.072 22.3945 127.938 22.6257 128.68 23.0879C129.422 23.5501 129.998 24.1882 130.408 25.002C130.825 25.8158 131.033 26.7598 131.033 27.834C131.033 28.8952 130.825 29.8327 130.408 30.6465C129.998 31.4603 129.422 32.0951 128.68 32.5508C127.938 33.0065 127.072 33.2344 126.082 33.2344ZM126.082 31.4473C126.681 31.4473 127.192 31.2975 127.615 30.998C128.045 30.6986 128.37 30.2786 128.592 29.7383C128.82 29.1914 128.934 28.5566 128.934 27.834C128.934 27.0983 128.82 26.4603 128.592 25.9199C128.37 25.373 128.045 24.9466 127.615 24.6406C127.192 24.3346 126.681 24.1816 126.082 24.1816C125.49 24.1816 124.979 24.3346 124.549 24.6406C124.119 24.9401 123.79 25.3633 123.562 25.9102C123.335 26.457 123.221 27.0983 123.221 27.834C123.221 28.5632 123.335 29.1979 123.562 29.7383C123.79 30.2786 124.116 30.6986 124.539 30.998C124.969 31.2975 125.483 31.4473 126.082 31.4473ZM134.988 27.0039V33H132.918V22.6191H134.949V25.1973H134.5C134.832 24.2663 135.298 23.5729 135.896 23.1172C136.502 22.6549 137.234 22.4238 138.094 22.4238C138.803 22.4238 139.438 22.5801 139.998 22.8926C140.564 23.1986 141.01 23.6543 141.336 24.2598C141.661 24.8652 141.824 25.6172 141.824 26.5156V33H139.744V26.7793C139.744 25.9525 139.546 25.3275 139.148 24.9043C138.758 24.4811 138.201 24.2695 137.479 24.2695C137.016 24.2695 136.596 24.3672 136.219 24.5625C135.841 24.7513 135.542 25.0475 135.32 25.4512C135.099 25.8548 134.988 26.3724 134.988 27.0039ZM151.102 27.0039V33H149.031V22.6191H151.062V25.1973H150.613C150.945 24.2663 151.411 23.5729 152.01 23.1172C152.615 22.6549 153.348 22.4238 154.207 22.4238C154.917 22.4238 155.551 22.5801 156.111 22.8926C156.678 23.1986 157.124 23.6543 157.449 24.2598C157.775 24.8652 157.938 25.6172 157.938 26.5156V33H155.857V26.7793C155.857 25.9525 155.659 25.3275 155.262 24.9043C154.871 24.4811 154.314 24.2695 153.592 24.2695C153.13 24.2695 152.71 24.3672 152.332 24.5625C151.954 24.7513 151.655 25.0475 151.434 25.4512C151.212 25.8548 151.102 26.3724 151.102 27.0039ZM164.773 33.2344C163.79 33.2344 162.924 33.0065 162.176 32.5508C161.434 32.0951 160.854 31.4603 160.438 30.6465C160.027 29.8327 159.822 28.8952 159.822 27.834C159.822 26.7598 160.027 25.8158 160.438 25.002C160.854 24.1882 161.434 23.5501 162.176 23.0879C162.924 22.6257 163.79 22.3945 164.773 22.3945C165.763 22.3945 166.629 22.6257 167.371 23.0879C168.113 23.5501 168.689 24.1882 169.1 25.002C169.516 25.8158 169.725 26.7598 169.725 27.834C169.725 28.8952 169.516 29.8327 169.1 30.6465C168.689 31.4603 168.113 32.0951 167.371 32.5508C166.629 33.0065 165.763 33.2344 164.773 33.2344ZM164.773 31.4473C165.372 31.4473 165.883 31.2975 166.307 30.998C166.736 30.6986 167.062 30.2786 167.283 29.7383C167.511 29.1914 167.625 28.5566 167.625 27.834C167.625 27.0983 167.511 26.4603 167.283 25.9199C167.062 25.373 166.736 24.9466 166.307 24.6406C165.883 24.3346 165.372 24.1816 164.773 24.1816C164.181 24.1816 163.67 24.3346 163.24 24.6406C162.811 24.9401 162.482 25.3633 162.254 25.9102C162.026 26.457 161.912 27.0983 161.912 27.834C161.912 28.5632 162.026 29.1979 162.254 29.7383C162.482 30.2786 162.807 30.6986 163.23 30.998C163.66 31.2975 164.174 31.4473 164.773 31.4473ZM176.551 22.6191V24.3281H170.574V22.6191H176.551ZM172.371 19.8359H174.441V30.2461C174.441 30.6367 174.523 30.9102 174.686 31.0664C174.848 31.2227 175.135 31.3008 175.545 31.3008C175.695 31.3008 175.864 31.3008 176.053 31.3008C176.242 31.2943 176.404 31.291 176.541 31.291L176.58 32.9902C176.404 32.9967 176.196 33.0033 175.955 33.0098C175.714 33.0163 175.483 33.0195 175.262 33.0195C174.292 33.0195 173.566 32.8112 173.084 32.3945C172.609 31.9714 172.371 31.3398 172.371 30.5V19.8359ZM182.693 33.2344C181.665 33.2344 180.779 33.0033 180.037 32.541C179.301 32.0788 178.735 31.4408 178.338 30.627C177.947 29.8132 177.752 28.8822 177.752 27.834C177.752 26.7728 177.954 25.8353 178.357 25.0215C178.768 24.2012 179.334 23.5599 180.057 23.0977C180.786 22.6289 181.626 22.3945 182.576 22.3945C183.292 22.3945 183.943 22.5215 184.529 22.7754C185.122 23.0293 185.63 23.3939 186.053 23.8691C186.482 24.3444 186.811 24.9141 187.039 25.5781C187.273 26.2422 187.391 26.9811 187.391 27.7949V28.3809H178.709V26.8184H186.307L185.389 27.2969C185.389 26.6523 185.275 26.0924 185.047 25.6172C184.819 25.1419 184.497 24.7741 184.08 24.5137C183.663 24.2533 183.165 24.123 182.586 24.123C182.02 24.123 181.525 24.2533 181.102 24.5137C180.685 24.7741 180.363 25.1419 180.135 25.6172C179.907 26.0859 179.793 26.6361 179.793 27.2676V28.1855C179.793 28.8431 179.907 29.4225 180.135 29.9238C180.363 30.4251 180.695 30.8158 181.131 31.0957C181.574 31.3691 182.104 31.5059 182.723 31.5059C183.165 31.5059 183.556 31.4375 183.895 31.3008C184.24 31.1641 184.526 30.9753 184.754 30.7344C184.988 30.487 185.154 30.1973 185.252 29.8652L187.244 29.9238C187.107 30.5749 186.827 31.151 186.404 31.6523C185.981 32.1471 185.451 32.5345 184.812 32.8145C184.174 33.0944 183.468 33.2344 182.693 33.2344ZM193.084 33.2344C192.296 33.2344 191.587 33.1107 190.955 32.8633C190.324 32.6159 189.812 32.2448 189.422 31.75C189.038 31.2552 188.816 30.64 188.758 29.9043L190.799 29.8555C190.864 30.4154 191.089 30.8451 191.473 31.1445C191.857 31.444 192.381 31.5938 193.045 31.5938C193.702 31.5938 194.22 31.4603 194.598 31.1934C194.982 30.9199 195.174 30.5781 195.174 30.168C195.174 29.8164 195.04 29.5332 194.773 29.3184C194.507 29.1035 194.145 28.9473 193.689 28.8496L191.961 28.4688C190.991 28.2539 190.255 27.8991 189.754 27.4043C189.253 26.9095 189.002 26.278 189.002 25.5098C189.002 24.8978 189.168 24.3574 189.5 23.8887C189.832 23.4199 190.298 23.0553 190.896 22.7949C191.495 22.5345 192.192 22.4043 192.986 22.4043C193.761 22.4043 194.445 22.541 195.037 22.8145C195.636 23.0814 196.108 23.4622 196.453 23.957C196.805 24.4453 196.997 25.028 197.029 25.7051L195.066 25.7539C195.047 25.2656 194.852 24.8587 194.48 24.5332C194.116 24.2077 193.624 24.0449 193.006 24.0449C192.42 24.0449 191.951 24.1816 191.6 24.4551C191.248 24.7285 191.072 25.0638 191.072 25.4609C191.072 25.8125 191.206 26.0957 191.473 26.3105C191.74 26.5254 192.111 26.6882 192.586 26.7988L194.344 27.1895C195.346 27.4108 196.085 27.7559 196.561 28.2246C197.036 28.6868 197.273 29.2956 197.273 30.0508C197.273 30.7018 197.091 31.2682 196.727 31.75C196.368 32.2253 195.874 32.5931 195.242 32.8535C194.611 33.1074 193.891 33.2344 193.084 33.2344Z" fill="black"/>
<defs>
<clipPath id="clip0_802_146">
<rect width="24" height="24" fill="white" transform="translate(16 14)"/>
</clipPath>
</defs>
</svg>
