<svg width="255" height="52" viewBox="0 0 255 52" fill="none" xmlns="http://www.w3.org/2000/svg">
<rect width="255" height="52" rx="26" fill="white"/>
<g clip-path="url(#clip0_802_161)">
<path d="M28 16C30.2902 15.9968 32.5116 16.7829 34.29 18.226C34.4023 18.317 34.4936 18.4312 34.5575 18.5608C34.6214 18.6904 34.6565 18.8323 34.6603 18.9768C34.6641 19.1213 34.6365 19.2648 34.5795 19.3976C34.5225 19.5304 34.4374 19.6493 34.33 19.746L32.82 21.108C32.6485 21.2625 32.4288 21.3528 32.1982 21.3638C31.9676 21.3747 31.7404 21.3055 31.555 21.168C30.5382 20.4207 29.3118 20.013 28.05 20.0028C26.7882 19.9927 25.5553 20.3806 24.5266 21.1114C23.4979 21.8422 22.7259 22.8788 22.3202 24.0736C21.9145 25.2685 21.8958 26.5608 22.2669 27.7669C22.6379 28.9729 23.3797 30.0313 24.3869 30.7915C25.394 31.5517 26.6152 31.9751 27.8767 32.0013C29.1383 32.0276 30.3761 31.6555 31.414 30.9378C32.4519 30.2202 33.2371 29.1936 33.658 28.004L33.659 28H29.999C29.7542 27.9997 29.5181 27.9097 29.3353 27.747C29.1524 27.5842 29.0356 27.3601 29.007 27.117L29 27V25C29 24.7348 29.1054 24.4804 29.2929 24.2929C29.4804 24.1054 29.7348 24 30 24H36.945C37.1912 24 37.4287 24.0908 37.6121 24.255C37.7955 24.4192 37.9119 24.6453 37.939 24.89C37.979 25.257 38 25.627 38 26C38 31.523 33.523 36 28 36C22.477 36 18 31.523 18 26C18 20.477 22.477 16 28 16Z" fill="#0077FF"/>
</g>
<path d="M59.5879 33.2344C58.2598 33.2344 57.0879 32.9219 56.0723 32.2969C55.0566 31.6654 54.2624 30.7865 53.6895 29.6602C53.1165 28.5339 52.8301 27.2253 52.8301 25.7344C52.8301 24.2305 53.1133 22.9154 53.6797 21.7891C54.2526 20.6628 55.0469 19.7871 56.0625 19.1621C57.0846 18.5306 58.2598 18.2148 59.5879 18.2148C60.3757 18.2148 61.1113 18.332 61.7949 18.5664C62.485 18.8008 63.1003 19.1393 63.6406 19.582C64.181 20.0247 64.627 20.5586 64.9785 21.1836C65.3366 21.8021 65.5807 22.502 65.7109 23.2832H63.4941C63.39 22.7884 63.2207 22.3522 62.9863 21.9746C62.752 21.5905 62.4655 21.2682 62.127 21.0078C61.7884 20.7409 61.4043 20.5423 60.9746 20.4121C60.5514 20.2754 60.0957 20.207 59.6074 20.207C58.6634 20.207 57.8464 20.4382 57.1562 20.9004C56.4727 21.3561 55.9421 21.9974 55.5645 22.8242C55.1934 23.651 55.0078 24.6211 55.0078 25.7344C55.0078 26.8411 55.1934 27.8079 55.5645 28.6348C55.9421 29.4551 56.4727 30.0964 57.1562 30.5586C57.8464 31.0143 58.6634 31.2422 59.6074 31.2422C60.0957 31.2422 60.5514 31.1771 60.9746 31.0469C61.3978 30.9102 61.7786 30.7116 62.1172 30.4512C62.4557 30.1908 62.7422 29.8717 62.9766 29.4941C63.2174 29.11 63.3932 28.6738 63.5039 28.1855H65.7109C65.5872 28.9538 65.3464 29.6471 64.9883 30.2656C64.6367 30.8841 64.1908 31.4147 63.6504 31.8574C63.11 32.3001 62.4948 32.6419 61.8047 32.8828C61.1211 33.1172 60.3822 33.2344 59.5879 33.2344ZM70.8184 33.166C70.1348 33.166 69.5228 33.0488 68.9824 32.8145C68.4421 32.5801 68.0156 32.2318 67.7031 31.7695C67.3906 31.3008 67.2344 30.7246 67.2344 30.041C67.2344 29.4421 67.3451 28.9538 67.5664 28.5762C67.7943 28.1986 68.1003 27.8991 68.4844 27.6777C68.875 27.4564 69.3145 27.2904 69.8027 27.1797C70.291 27.0625 70.7956 26.9746 71.3164 26.916C71.9674 26.8314 72.4818 26.7663 72.8594 26.7207C73.237 26.6686 73.5072 26.5905 73.6699 26.4863C73.8392 26.3757 73.9238 26.1966 73.9238 25.9492V25.8613C73.9238 25.5163 73.8392 25.2135 73.6699 24.9531C73.5072 24.6927 73.2695 24.4909 72.957 24.3477C72.651 24.1979 72.2767 24.123 71.834 24.123C71.3913 24.123 71.0007 24.1947 70.6621 24.3379C70.3301 24.4811 70.0632 24.6764 69.8613 24.9238C69.666 25.1712 69.5521 25.4512 69.5195 25.7637L67.4883 25.7051C67.5469 25.0475 67.765 24.4746 68.1426 23.9863C68.5202 23.4915 69.0247 23.1074 69.6562 22.834C70.2878 22.5605 71.0202 22.4238 71.8535 22.4238C72.4655 22.4238 73.0254 22.502 73.5332 22.6582C74.041 22.8145 74.474 23.0423 74.832 23.3418C75.1966 23.6413 75.4766 24.0059 75.6719 24.4355C75.8737 24.8652 75.9746 25.3568 75.9746 25.9102V33H73.9336V31.5352H73.8945C73.7513 31.8151 73.5527 32.0788 73.2988 32.3262C73.0449 32.5736 72.7161 32.7754 72.3125 32.9316C71.9089 33.0879 71.4108 33.166 70.8184 33.166ZM71.248 31.5059C71.8535 31.5059 72.3548 31.3952 72.752 31.1738C73.1491 30.9525 73.4421 30.6628 73.6309 30.3047C73.8262 29.9466 73.9238 29.556 73.9238 29.1328V27.9023C73.8522 27.9609 73.7318 28.0163 73.5625 28.0684C73.3997 28.1139 73.2012 28.1595 72.9668 28.2051C72.7324 28.2507 72.4818 28.2962 72.2148 28.3418C71.9544 28.3809 71.694 28.4199 71.4336 28.459C71.056 28.5111 70.7044 28.599 70.3789 28.7227C70.0534 28.8398 69.7897 29.0059 69.5879 29.2207C69.3861 29.4355 69.2852 29.7188 69.2852 30.0703C69.2852 30.3698 69.3665 30.627 69.5293 30.8418C69.6921 31.0566 69.9199 31.2227 70.2129 31.3398C70.5059 31.4505 70.8509 31.5059 71.248 31.5059ZM80.4375 18.4492V33H78.3672V18.4492H80.4375ZM87.2637 33.2344C86.235 33.2344 85.3496 33.0033 84.6074 32.541C83.8717 32.0788 83.3053 31.4408 82.9082 30.627C82.5176 29.8132 82.3223 28.8822 82.3223 27.834C82.3223 26.7728 82.5241 25.8353 82.9277 25.0215C83.3379 24.2012 83.9043 23.5599 84.627 23.0977C85.3561 22.6289 86.196 22.3945 87.1465 22.3945C87.8626 22.3945 88.5137 22.5215 89.0996 22.7754C89.6921 23.0293 90.1999 23.3939 90.623 23.8691C91.0527 24.3444 91.3815 24.9141 91.6094 25.5781C91.8438 26.2422 91.9609 26.9811 91.9609 27.7949V28.3809H83.2793V26.8184H90.877L89.959 27.2969C89.959 26.6523 89.8451 26.0924 89.6172 25.6172C89.3893 25.1419 89.0671 24.7741 88.6504 24.5137C88.2337 24.2533 87.7357 24.123 87.1562 24.123C86.5898 24.123 86.0951 24.2533 85.6719 24.5137C85.2552 24.7741 84.9329 25.1419 84.7051 25.6172C84.4772 26.0859 84.3633 26.6361 84.3633 27.2676V28.1855C84.3633 28.8431 84.4772 29.4225 84.7051 29.9238C84.9329 30.4251 85.265 30.8158 85.7012 31.0957C86.1439 31.3691 86.6745 31.5059 87.293 31.5059C87.7357 31.5059 88.1263 31.4375 88.4648 31.3008C88.8099 31.1641 89.0964 30.9753 89.3242 30.7344C89.5586 30.487 89.7246 30.1973 89.8223 29.8652L91.8145 29.9238C91.6777 30.5749 91.3978 31.151 90.9746 31.6523C90.5514 32.1471 90.0208 32.5345 89.3828 32.8145C88.7448 33.0944 88.0384 33.2344 87.2637 33.2344ZM95.8867 27.0039V33H93.8164V22.6191H95.8477V25.1973H95.3984C95.7305 24.2663 96.196 23.5729 96.7949 23.1172C97.4004 22.6549 98.1328 22.4238 98.9922 22.4238C99.7018 22.4238 100.337 22.5801 100.896 22.8926C101.463 23.1986 101.909 23.6543 102.234 24.2598C102.56 24.8652 102.723 25.6172 102.723 26.5156V33H100.643V26.7793C100.643 25.9525 100.444 25.3275 100.047 24.9043C99.6562 24.4811 99.0996 24.2695 98.377 24.2695C97.9147 24.2695 97.4948 24.3672 97.1172 24.5625C96.7396 24.7513 96.4401 25.0475 96.2188 25.4512C95.9974 25.8548 95.8867 26.3724 95.8867 27.0039ZM109.08 33.2051C108.188 33.2051 107.404 32.9805 106.727 32.5312C106.056 32.0755 105.535 31.444 105.164 30.6367C104.793 29.8294 104.607 28.8887 104.607 27.8145C104.607 26.7402 104.793 25.7995 105.164 24.9922C105.542 24.1784 106.066 23.5469 106.736 23.0977C107.413 22.6484 108.195 22.4238 109.08 22.4238C109.555 22.4238 109.992 22.4922 110.389 22.6289C110.786 22.7656 111.141 22.9609 111.453 23.2148C111.766 23.4688 112.026 23.778 112.234 24.1426H112.264V18.4492H114.344V33H112.303V31.418H112.273C112.052 31.7956 111.782 32.1178 111.463 32.3848C111.144 32.6517 110.786 32.8568 110.389 33C109.992 33.1367 109.555 33.2051 109.08 33.2051ZM109.51 31.418C110.096 31.418 110.604 31.2682 111.033 30.9688C111.469 30.6693 111.805 30.2493 112.039 29.709C112.273 29.1686 112.391 28.5339 112.391 27.8047C112.391 27.0755 112.273 26.4408 112.039 25.9004C111.805 25.36 111.469 24.9434 111.033 24.6504C110.604 24.3509 110.096 24.2012 109.51 24.2012C108.95 24.2012 108.458 24.3411 108.035 24.6211C107.612 24.901 107.283 25.3112 107.049 25.8516C106.821 26.3854 106.707 27.0365 106.707 27.8047C106.707 28.5729 106.824 29.2272 107.059 29.7676C107.293 30.3079 107.618 30.7181 108.035 30.998C108.458 31.278 108.95 31.418 109.51 31.418ZM119.861 33.166C119.178 33.166 118.566 33.0488 118.025 32.8145C117.485 32.5801 117.059 32.2318 116.746 31.7695C116.434 31.3008 116.277 30.7246 116.277 30.041C116.277 29.4421 116.388 28.9538 116.609 28.5762C116.837 28.1986 117.143 27.8991 117.527 27.6777C117.918 27.4564 118.357 27.2904 118.846 27.1797C119.334 27.0625 119.839 26.9746 120.359 26.916C121.01 26.8314 121.525 26.7663 121.902 26.7207C122.28 26.6686 122.55 26.5905 122.713 26.4863C122.882 26.3757 122.967 26.1966 122.967 25.9492V25.8613C122.967 25.5163 122.882 25.2135 122.713 24.9531C122.55 24.6927 122.312 24.4909 122 24.3477C121.694 24.1979 121.32 24.123 120.877 24.123C120.434 24.123 120.044 24.1947 119.705 24.3379C119.373 24.4811 119.106 24.6764 118.904 24.9238C118.709 25.1712 118.595 25.4512 118.562 25.7637L116.531 25.7051C116.59 25.0475 116.808 24.4746 117.186 23.9863C117.563 23.4915 118.068 23.1074 118.699 22.834C119.331 22.5605 120.063 22.4238 120.896 22.4238C121.508 22.4238 122.068 22.502 122.576 22.6582C123.084 22.8145 123.517 23.0423 123.875 23.3418C124.24 23.6413 124.52 24.0059 124.715 24.4355C124.917 24.8652 125.018 25.3568 125.018 25.9102V33H122.977V31.5352H122.938C122.794 31.8151 122.596 32.0788 122.342 32.3262C122.088 32.5736 121.759 32.7754 121.355 32.9316C120.952 33.0879 120.454 33.166 119.861 33.166ZM120.291 31.5059C120.896 31.5059 121.398 31.3952 121.795 31.1738C122.192 30.9525 122.485 30.6628 122.674 30.3047C122.869 29.9466 122.967 29.556 122.967 29.1328V27.9023C122.895 27.9609 122.775 28.0163 122.605 28.0684C122.443 28.1139 122.244 28.1595 122.01 28.2051C121.775 28.2507 121.525 28.2962 121.258 28.3418C120.997 28.3809 120.737 28.4199 120.477 28.459C120.099 28.5111 119.747 28.599 119.422 28.7227C119.096 28.8398 118.833 29.0059 118.631 29.2207C118.429 29.4355 118.328 29.7188 118.328 30.0703C118.328 30.3698 118.41 30.627 118.572 30.8418C118.735 31.0566 118.963 31.2227 119.256 31.3398C119.549 31.4505 119.894 31.5059 120.291 31.5059ZM127.41 33V22.6191H129.402V24.2988H129.441C129.637 23.7324 129.943 23.2897 130.359 22.9707C130.776 22.6517 131.313 22.4922 131.971 22.4922C132.12 22.4922 132.264 22.4987 132.4 22.5117C132.537 22.5182 132.648 22.528 132.732 22.541V24.4746C132.654 24.4616 132.511 24.4421 132.303 24.416C132.101 24.39 131.88 24.377 131.639 24.377C131.248 24.377 130.887 24.4681 130.555 24.6504C130.229 24.8327 129.969 25.1061 129.773 25.4707C129.578 25.8353 129.48 26.2943 129.48 26.8477V33H127.41ZM139.129 33V22.6191H141.199V33H139.129ZM140.164 20.8613C139.793 20.8613 139.48 20.7376 139.227 20.4902C138.979 20.2428 138.855 19.9434 138.855 19.5918C138.855 19.2337 138.979 18.9342 139.227 18.6934C139.48 18.446 139.79 18.3223 140.154 18.3223C140.525 18.3223 140.838 18.446 141.092 18.6934C141.346 18.9342 141.473 19.2337 141.473 19.5918C141.473 19.9434 141.346 20.2428 141.092 20.4902C140.838 20.7376 140.529 20.8613 140.164 20.8613ZM145.652 27.0039V33H143.582V22.6191H145.613V25.1973H145.164C145.496 24.2663 145.962 23.5729 146.561 23.1172C147.166 22.6549 147.898 22.4238 148.758 22.4238C149.467 22.4238 150.102 22.5801 150.662 22.8926C151.229 23.1986 151.674 23.6543 152 24.2598C152.326 24.8652 152.488 25.6172 152.488 26.5156V33H150.408V26.7793C150.408 25.9525 150.21 25.3275 149.812 24.9043C149.422 24.4811 148.865 24.2695 148.143 24.2695C147.68 24.2695 147.26 24.3672 146.883 24.5625C146.505 24.7513 146.206 25.0475 145.984 25.4512C145.763 25.8548 145.652 26.3724 145.652 27.0039ZM159.812 22.6191V24.3281H153.836V22.6191H159.812ZM155.633 19.8359H157.703V30.2461C157.703 30.6367 157.785 30.9102 157.947 31.0664C158.11 31.2227 158.396 31.3008 158.807 31.3008C158.956 31.3008 159.126 31.3008 159.314 31.3008C159.503 31.2943 159.666 31.291 159.803 31.291L159.842 32.9902C159.666 32.9967 159.458 33.0033 159.217 33.0098C158.976 33.0163 158.745 33.0195 158.523 33.0195C157.553 33.0195 156.827 32.8112 156.346 32.3945C155.87 31.9714 155.633 31.3398 155.633 30.5V19.8359ZM165.955 33.2344C164.926 33.2344 164.041 33.0033 163.299 32.541C162.563 32.0788 161.997 31.4408 161.6 30.627C161.209 29.8132 161.014 28.8822 161.014 27.834C161.014 26.7728 161.215 25.8353 161.619 25.0215C162.029 24.2012 162.596 23.5599 163.318 23.0977C164.048 22.6289 164.887 22.3945 165.838 22.3945C166.554 22.3945 167.205 22.5215 167.791 22.7754C168.383 23.0293 168.891 23.3939 169.314 23.8691C169.744 24.3444 170.073 24.9141 170.301 25.5781C170.535 26.2422 170.652 26.9811 170.652 27.7949V28.3809H161.971V26.8184H169.568L168.65 27.2969C168.65 26.6523 168.536 26.0924 168.309 25.6172C168.081 25.1419 167.758 24.7741 167.342 24.5137C166.925 24.2533 166.427 24.123 165.848 24.123C165.281 24.123 164.786 24.2533 164.363 24.5137C163.947 24.7741 163.624 25.1419 163.396 25.6172C163.169 26.0859 163.055 26.6361 163.055 27.2676V28.1855C163.055 28.8431 163.169 29.4225 163.396 29.9238C163.624 30.4251 163.956 30.8158 164.393 31.0957C164.835 31.3691 165.366 31.5059 165.984 31.5059C166.427 31.5059 166.818 31.4375 167.156 31.3008C167.501 31.1641 167.788 30.9753 168.016 30.7344C168.25 30.487 168.416 30.1973 168.514 29.8652L170.506 29.9238C170.369 30.5749 170.089 31.151 169.666 31.6523C169.243 32.1471 168.712 32.5345 168.074 32.8145C167.436 33.0944 166.73 33.2344 165.955 33.2344ZM177.02 37.2285C176.173 37.2285 175.431 37.1048 174.793 36.8574C174.155 36.61 173.637 36.2552 173.24 35.793C172.85 35.3307 172.605 34.7741 172.508 34.123L174.529 34.0352C174.627 34.3542 174.786 34.6243 175.008 34.8457C175.236 35.0736 175.519 35.2461 175.857 35.3633C176.196 35.4805 176.58 35.5391 177.01 35.5391C177.85 35.5391 178.504 35.3177 178.973 34.875C179.448 34.4388 179.686 33.804 179.686 32.9707V31.3398H179.656C179.435 31.7174 179.168 32.0397 178.855 32.3066C178.543 32.5671 178.188 32.7656 177.791 32.9023C177.4 33.0326 176.964 33.0977 176.482 33.0977C175.597 33.0977 174.816 32.8763 174.139 32.4336C173.462 31.9844 172.938 31.3626 172.566 30.5684C172.195 29.7676 172.01 28.8398 172.01 27.7852C172.01 26.7174 172.195 25.7832 172.566 24.9824C172.944 24.1751 173.468 23.5469 174.139 23.0977C174.816 22.6484 175.597 22.4238 176.482 22.4238C176.958 22.4238 177.394 22.4922 177.791 22.6289C178.195 22.7656 178.556 22.9674 178.875 23.2344C179.194 23.5013 179.464 23.8268 179.686 24.2109H179.705V22.6191H181.746V32.9023C181.746 33.931 181.535 34.7611 181.111 35.3926C180.688 36.0306 180.118 36.4961 179.402 36.7891C178.686 37.082 177.892 37.2285 177.02 37.2285ZM176.912 31.3301C177.498 31.3301 178.006 31.1836 178.436 30.8906C178.872 30.5977 179.207 30.1842 179.441 29.6504C179.676 29.1165 179.793 28.4883 179.793 27.7656C179.793 27.043 179.676 26.4147 179.441 25.8809C179.207 25.3405 178.875 24.9238 178.445 24.6309C178.016 24.3314 177.505 24.1816 176.912 24.1816C176.352 24.1816 175.861 24.3216 175.438 24.6016C175.021 24.8815 174.695 25.2884 174.461 25.8223C174.227 26.3561 174.109 27.0039 174.109 27.7656C174.109 28.5273 174.227 29.1751 174.461 29.709C174.695 30.2428 175.021 30.6465 175.438 30.9199C175.861 31.1934 176.352 31.3301 176.912 31.3301ZM184.129 33V22.6191H186.121V24.2988H186.16C186.355 23.7324 186.661 23.2897 187.078 22.9707C187.495 22.6517 188.032 22.4922 188.689 22.4922C188.839 22.4922 188.982 22.4987 189.119 22.5117C189.256 22.5182 189.367 22.528 189.451 22.541V24.4746C189.373 24.4616 189.23 24.4421 189.021 24.416C188.82 24.39 188.598 24.377 188.357 24.377C187.967 24.377 187.605 24.4681 187.273 24.6504C186.948 24.8327 186.688 25.1061 186.492 25.4707C186.297 25.8353 186.199 26.2943 186.199 26.8477V33H184.129ZM194.158 33.166C193.475 33.166 192.863 33.0488 192.322 32.8145C191.782 32.5801 191.355 32.2318 191.043 31.7695C190.73 31.3008 190.574 30.7246 190.574 30.041C190.574 29.4421 190.685 28.9538 190.906 28.5762C191.134 28.1986 191.44 27.8991 191.824 27.6777C192.215 27.4564 192.654 27.2904 193.143 27.1797C193.631 27.0625 194.135 26.9746 194.656 26.916C195.307 26.8314 195.822 26.7663 196.199 26.7207C196.577 26.6686 196.847 26.5905 197.01 26.4863C197.179 26.3757 197.264 26.1966 197.264 25.9492V25.8613C197.264 25.5163 197.179 25.2135 197.01 24.9531C196.847 24.6927 196.609 24.4909 196.297 24.3477C195.991 24.1979 195.617 24.123 195.174 24.123C194.731 24.123 194.34 24.1947 194.002 24.3379C193.67 24.4811 193.403 24.6764 193.201 24.9238C193.006 25.1712 192.892 25.4512 192.859 25.7637L190.828 25.7051C190.887 25.0475 191.105 24.4746 191.482 23.9863C191.86 23.4915 192.365 23.1074 192.996 22.834C193.628 22.5605 194.36 22.4238 195.193 22.4238C195.805 22.4238 196.365 22.502 196.873 22.6582C197.381 22.8145 197.814 23.0423 198.172 23.3418C198.536 23.6413 198.816 24.0059 199.012 24.4355C199.214 24.8652 199.314 25.3568 199.314 25.9102V33H197.273V31.5352H197.234C197.091 31.8151 196.893 32.0788 196.639 32.3262C196.385 32.5736 196.056 32.7754 195.652 32.9316C195.249 33.0879 194.751 33.166 194.158 33.166ZM194.588 31.5059C195.193 31.5059 195.695 31.3952 196.092 31.1738C196.489 30.9525 196.782 30.6628 196.971 30.3047C197.166 29.9466 197.264 29.556 197.264 29.1328V27.9023C197.192 27.9609 197.072 28.0163 196.902 28.0684C196.74 28.1139 196.541 28.1595 196.307 28.2051C196.072 28.2507 195.822 28.2962 195.555 28.3418C195.294 28.3809 195.034 28.4199 194.773 28.459C194.396 28.5111 194.044 28.599 193.719 28.7227C193.393 28.8398 193.13 29.0059 192.928 29.2207C192.726 29.4355 192.625 29.7188 192.625 30.0703C192.625 30.3698 192.706 30.627 192.869 30.8418C193.032 31.0566 193.26 31.2227 193.553 31.3398C193.846 31.4505 194.191 31.5059 194.588 31.5059ZM206.648 22.6191V24.3281H200.672V22.6191H206.648ZM202.469 19.8359H204.539V30.2461C204.539 30.6367 204.62 30.9102 204.783 31.0664C204.946 31.2227 205.232 31.3008 205.643 31.3008C205.792 31.3008 205.962 31.3008 206.15 31.3008C206.339 31.2943 206.502 31.291 206.639 31.291L206.678 32.9902C206.502 32.9967 206.294 33.0033 206.053 33.0098C205.812 33.0163 205.581 33.0195 205.359 33.0195C204.389 33.0195 203.663 32.8112 203.182 32.3945C202.706 31.9714 202.469 31.3398 202.469 30.5V19.8359ZM208.348 33V22.6191H210.418V33H208.348ZM209.383 20.8613C209.012 20.8613 208.699 20.7376 208.445 20.4902C208.198 20.2428 208.074 19.9434 208.074 19.5918C208.074 19.2337 208.198 18.9342 208.445 18.6934C208.699 18.446 209.008 18.3223 209.373 18.3223C209.744 18.3223 210.057 18.446 210.311 18.6934C210.564 18.9342 210.691 19.2337 210.691 19.5918C210.691 19.9434 210.564 20.2428 210.311 20.4902C210.057 20.7376 209.747 20.8613 209.383 20.8613ZM217.254 33.2344C216.271 33.2344 215.405 33.0065 214.656 32.5508C213.914 32.0951 213.335 31.4603 212.918 30.6465C212.508 29.8327 212.303 28.8952 212.303 27.834C212.303 26.7598 212.508 25.8158 212.918 25.002C213.335 24.1882 213.914 23.5501 214.656 23.0879C215.405 22.6257 216.271 22.3945 217.254 22.3945C218.243 22.3945 219.109 22.6257 219.852 23.0879C220.594 23.5501 221.17 24.1882 221.58 25.002C221.997 25.8158 222.205 26.7598 222.205 27.834C222.205 28.8952 221.997 29.8327 221.58 30.6465C221.17 31.4603 220.594 32.0951 219.852 32.5508C219.109 33.0065 218.243 33.2344 217.254 33.2344ZM217.254 31.4473C217.853 31.4473 218.364 31.2975 218.787 30.998C219.217 30.6986 219.542 30.2786 219.764 29.7383C219.992 29.1914 220.105 28.5566 220.105 27.834C220.105 27.0983 219.992 26.4603 219.764 25.9199C219.542 25.373 219.217 24.9466 218.787 24.6406C218.364 24.3346 217.853 24.1816 217.254 24.1816C216.661 24.1816 216.15 24.3346 215.721 24.6406C215.291 24.9401 214.962 25.3633 214.734 25.9102C214.507 26.457 214.393 27.0983 214.393 27.834C214.393 28.5632 214.507 29.1979 214.734 29.7383C214.962 30.2786 215.288 30.6986 215.711 30.998C216.141 31.2975 216.655 31.4473 217.254 31.4473ZM226.16 27.0039V33H224.09V22.6191H226.121V25.1973H225.672C226.004 24.2663 226.469 23.5729 227.068 23.1172C227.674 22.6549 228.406 22.4238 229.266 22.4238C229.975 22.4238 230.61 22.5801 231.17 22.8926C231.736 23.1986 232.182 23.6543 232.508 24.2598C232.833 24.8652 232.996 25.6172 232.996 26.5156V33H230.916V26.7793C230.916 25.9525 230.717 25.3275 230.32 24.9043C229.93 24.4811 229.373 24.2695 228.65 24.2695C228.188 24.2695 227.768 24.3672 227.391 24.5625C227.013 24.7513 226.714 25.0475 226.492 25.4512C226.271 25.8548 226.16 26.3724 226.16 27.0039Z" fill="black"/>
<defs>
<clipPath id="clip0_802_161">
<rect width="24" height="24" fill="white" transform="translate(16 14)"/>
</clipPath>
</defs>
</svg>
