<svg width="175" height="52" viewBox="0 0 175 52" fill="none" xmlns="http://www.w3.org/2000/svg">
<rect width="175" height="52" rx="26" fill="white"/>
<g clip-path="url(#clip0_802_174)">
<path d="M28 16L28.117 16.007C28.3402 16.0333 28.5481 16.1341 28.707 16.293C28.8659 16.4519 28.9667 16.6598 28.993 16.883L29 17V21L29.005 21.15C29.0408 21.6262 29.2458 22.0738 29.5829 22.412C29.92 22.7502 30.3669 22.9567 30.843 22.994L31 23H35L35.117 23.007C35.3402 23.0333 35.5481 23.1341 35.707 23.293C35.8659 23.4519 35.9667 23.6598 35.993 23.883L36 24V33C36 33.7652 35.7077 34.5015 35.1827 35.0583C34.6578 35.615 33.9399 35.9501 33.176 35.995L33 36H23C22.2348 36 21.4985 35.7077 20.9417 35.1827C20.385 34.6578 20.0499 33.9399 20.005 33.176L20 33V19C20 18.2348 20.2923 17.4985 20.8173 16.9417C21.3422 16.385 22.0601 16.0499 22.824 16.005L23 16H28ZM28 24C27.7348 24 27.4804 24.1054 27.2929 24.2929C27.1054 24.4804 27 24.7348 27 25V28.585L26.207 27.793C26.0348 27.6208 25.8057 27.5174 25.5627 27.5021C25.3197 27.4868 25.0794 27.5607 24.887 27.71L24.793 27.793C24.6055 27.9805 24.5002 28.2348 24.5002 28.5C24.5002 28.7652 24.6055 29.0195 24.793 29.207L27.293 31.707L27.337 31.749L27.405 31.804L27.515 31.875L27.629 31.929L27.734 31.964L27.884 31.994L28 32L28.117 31.993L28.234 31.973L28.342 31.94L28.423 31.906L28.521 31.854L28.613 31.79L28.707 31.707L31.207 29.207C31.3945 29.0195 31.4998 28.7652 31.4998 28.5C31.4998 28.2348 31.3945 27.9805 31.207 27.793L31.113 27.71C30.9206 27.5607 30.6803 27.4868 30.4373 27.5021C30.1943 27.5174 29.9652 27.6208 29.793 27.793L29 28.584V25C29 24.7551 28.91 24.5187 28.7473 24.3356C28.5845 24.1526 28.3603 24.0357 28.117 24.007L28 24ZM30.999 16.999L35 21H31L30.999 16.999Z" fill="#8968FF"/>
</g>
<path d="M53.3574 33V18.4492H62.7812V20.3535H55.5352V24.748H62.2148V26.6328H55.5352V33H53.3574ZM64.5195 33V22.6191H66.5898V33H64.5195ZM65.5547 20.8613C65.1836 20.8613 64.8711 20.7376 64.6172 20.4902C64.3698 20.2428 64.2461 19.9434 64.2461 19.5918C64.2461 19.2337 64.3698 18.9342 64.6172 18.6934C64.8711 18.446 65.1803 18.3223 65.5449 18.3223C65.916 18.3223 66.2285 18.446 66.4824 18.6934C66.7363 18.9342 66.8633 19.2337 66.8633 19.5918C66.8633 19.9434 66.7363 20.2428 66.4824 20.4902C66.2285 20.7376 65.9193 20.8613 65.5547 20.8613ZM71.043 18.4492V33H68.9727V18.4492H71.043ZM77.8691 33.2344C76.8405 33.2344 75.9551 33.0033 75.2129 32.541C74.4772 32.0788 73.9108 31.4408 73.5137 30.627C73.123 29.8132 72.9277 28.8822 72.9277 27.834C72.9277 26.7728 73.1296 25.8353 73.5332 25.0215C73.9434 24.2012 74.5098 23.5599 75.2324 23.0977C75.9616 22.6289 76.8014 22.3945 77.752 22.3945C78.4681 22.3945 79.1191 22.5215 79.7051 22.7754C80.2975 23.0293 80.8053 23.3939 81.2285 23.8691C81.6582 24.3444 81.987 24.9141 82.2148 25.5781C82.4492 26.2422 82.5664 26.9811 82.5664 27.7949V28.3809H73.8848V26.8184H81.4824L80.5645 27.2969C80.5645 26.6523 80.4505 26.0924 80.2227 25.6172C79.9948 25.1419 79.6725 24.7741 79.2559 24.5137C78.8392 24.2533 78.3411 24.123 77.7617 24.123C77.1953 24.123 76.7005 24.2533 76.2773 24.5137C75.8607 24.7741 75.5384 25.1419 75.3105 25.6172C75.0827 26.0859 74.9688 26.6361 74.9688 27.2676V28.1855C74.9688 28.8431 75.0827 29.4225 75.3105 29.9238C75.5384 30.4251 75.8704 30.8158 76.3066 31.0957C76.7493 31.3691 77.2799 31.5059 77.8984 31.5059C78.3411 31.5059 78.7318 31.4375 79.0703 31.3008C79.4154 31.1641 79.7018 30.9753 79.9297 30.7344C80.1641 30.487 80.3301 30.1973 80.4277 29.8652L82.4199 29.9238C82.2832 30.5749 82.0033 31.151 81.5801 31.6523C81.1569 32.1471 80.6263 32.5345 79.9883 32.8145C79.3503 33.0944 78.6439 33.2344 77.8691 33.2344ZM93.084 33.2344C92.2962 33.2344 91.5866 33.1107 90.9551 32.8633C90.3236 32.6159 89.8125 32.2448 89.4219 31.75C89.0378 31.2552 88.8164 30.64 88.7578 29.9043L90.7988 29.8555C90.8639 30.4154 91.0885 30.8451 91.4727 31.1445C91.8568 31.444 92.3809 31.5938 93.0449 31.5938C93.7025 31.5938 94.2201 31.4603 94.5977 31.1934C94.9818 30.9199 95.1738 30.5781 95.1738 30.168C95.1738 29.8164 95.0404 29.5332 94.7734 29.3184C94.5065 29.1035 94.1452 28.9473 93.6895 28.8496L91.9609 28.4688C90.9909 28.2539 90.2552 27.8991 89.7539 27.4043C89.2526 26.9095 89.002 26.278 89.002 25.5098C89.002 24.8978 89.168 24.3574 89.5 23.8887C89.832 23.4199 90.2975 23.0553 90.8965 22.7949C91.4954 22.5345 92.1921 22.4043 92.9863 22.4043C93.7611 22.4043 94.4447 22.541 95.0371 22.8145C95.6361 23.0814 96.1081 23.4622 96.4531 23.957C96.8047 24.4453 96.9967 25.028 97.0293 25.7051L95.0664 25.7539C95.0469 25.2656 94.8516 24.8587 94.4805 24.5332C94.1159 24.2077 93.6243 24.0449 93.0059 24.0449C92.4199 24.0449 91.9512 24.1816 91.5996 24.4551C91.248 24.7285 91.0723 25.0638 91.0723 25.4609C91.0723 25.8125 91.2057 26.0957 91.4727 26.3105C91.7396 26.5254 92.1107 26.6882 92.5859 26.7988L94.3438 27.1895C95.3464 27.4108 96.0853 27.7559 96.5605 28.2246C97.0358 28.6868 97.2734 29.2956 97.2734 30.0508C97.2734 30.7018 97.0911 31.2682 96.7266 31.75C96.3685 32.2253 95.8737 32.5931 95.2422 32.8535C94.6107 33.1074 93.8913 33.2344 93.084 33.2344ZM101.219 27.0039V33H99.1484V18.4492H101.219V25.1973H100.73C101.062 24.2663 101.528 23.5729 102.127 23.1172C102.732 22.6549 103.465 22.4238 104.324 22.4238C105.034 22.4238 105.669 22.5801 106.229 22.8926C106.795 23.1986 107.241 23.6543 107.566 24.2598C107.892 24.8652 108.055 25.6172 108.055 26.5156V33H105.975V26.7793C105.975 25.9525 105.776 25.3275 105.379 24.9043C104.988 24.4811 104.432 24.2695 103.709 24.2695C103.247 24.2695 102.827 24.3672 102.449 24.5625C102.072 24.7513 101.772 25.0475 101.551 25.4512C101.329 25.8548 101.219 26.3724 101.219 27.0039ZM113.572 33.166C112.889 33.166 112.277 33.0488 111.736 32.8145C111.196 32.5801 110.77 32.2318 110.457 31.7695C110.145 31.3008 109.988 30.7246 109.988 30.041C109.988 29.4421 110.099 28.9538 110.32 28.5762C110.548 28.1986 110.854 27.8991 111.238 27.6777C111.629 27.4564 112.068 27.2904 112.557 27.1797C113.045 27.0625 113.549 26.9746 114.07 26.916C114.721 26.8314 115.236 26.7663 115.613 26.7207C115.991 26.6686 116.261 26.5905 116.424 26.4863C116.593 26.3757 116.678 26.1966 116.678 25.9492V25.8613C116.678 25.5163 116.593 25.2135 116.424 24.9531C116.261 24.6927 116.023 24.4909 115.711 24.3477C115.405 24.1979 115.031 24.123 114.588 24.123C114.145 24.123 113.755 24.1947 113.416 24.3379C113.084 24.4811 112.817 24.6764 112.615 24.9238C112.42 25.1712 112.306 25.4512 112.273 25.7637L110.242 25.7051C110.301 25.0475 110.519 24.4746 110.896 23.9863C111.274 23.4915 111.779 23.1074 112.41 22.834C113.042 22.5605 113.774 22.4238 114.607 22.4238C115.219 22.4238 115.779 22.502 116.287 22.6582C116.795 22.8145 117.228 23.0423 117.586 23.3418C117.951 23.6413 118.23 24.0059 118.426 24.4355C118.628 24.8652 118.729 25.3568 118.729 25.9102V33H116.688V31.5352H116.648C116.505 31.8151 116.307 32.0788 116.053 32.3262C115.799 32.5736 115.47 32.7754 115.066 32.9316C114.663 33.0879 114.165 33.166 113.572 33.166ZM114.002 31.5059C114.607 31.5059 115.109 31.3952 115.506 31.1738C115.903 30.9525 116.196 30.6628 116.385 30.3047C116.58 29.9466 116.678 29.556 116.678 29.1328V27.9023C116.606 27.9609 116.486 28.0163 116.316 28.0684C116.154 28.1139 115.955 28.1595 115.721 28.2051C115.486 28.2507 115.236 28.2962 114.969 28.3418C114.708 28.3809 114.448 28.4199 114.188 28.459C113.81 28.5111 113.458 28.599 113.133 28.7227C112.807 28.8398 112.544 29.0059 112.342 29.2207C112.14 29.4355 112.039 29.7188 112.039 30.0703C112.039 30.3698 112.12 30.627 112.283 30.8418C112.446 31.0566 112.674 31.2227 112.967 31.3398C113.26 31.4505 113.605 31.5059 114.002 31.5059ZM121.121 33V22.6191H123.113V24.2988H123.152C123.348 23.7324 123.654 23.2897 124.07 22.9707C124.487 22.6517 125.024 22.4922 125.682 22.4922C125.831 22.4922 125.975 22.4987 126.111 22.5117C126.248 22.5182 126.359 22.528 126.443 22.541V24.4746C126.365 24.4616 126.222 24.4421 126.014 24.416C125.812 24.39 125.59 24.377 125.35 24.377C124.959 24.377 124.598 24.4681 124.266 24.6504C123.94 24.8327 123.68 25.1061 123.484 25.4707C123.289 25.8353 123.191 26.2943 123.191 26.8477V33H121.121ZM128.016 33V22.6191H130.086V33H128.016ZM129.051 20.8613C128.68 20.8613 128.367 20.7376 128.113 20.4902C127.866 20.2428 127.742 19.9434 127.742 19.5918C127.742 19.2337 127.866 18.9342 128.113 18.6934C128.367 18.446 128.676 18.3223 129.041 18.3223C129.412 18.3223 129.725 18.446 129.979 18.6934C130.232 18.9342 130.359 19.2337 130.359 19.5918C130.359 19.9434 130.232 20.2428 129.979 20.4902C129.725 20.7376 129.415 20.8613 129.051 20.8613ZM134.539 27.0039V33H132.469V22.6191H134.5V25.1973H134.051C134.383 24.2663 134.848 23.5729 135.447 23.1172C136.053 22.6549 136.785 22.4238 137.645 22.4238C138.354 22.4238 138.989 22.5801 139.549 22.8926C140.115 23.1986 140.561 23.6543 140.887 24.2598C141.212 24.8652 141.375 25.6172 141.375 26.5156V33H139.295V26.7793C139.295 25.9525 139.096 25.3275 138.699 24.9043C138.309 24.4811 137.752 24.2695 137.029 24.2695C136.567 24.2695 136.147 24.3672 135.77 24.5625C135.392 24.7513 135.092 25.0475 134.871 25.4512C134.65 25.8548 134.539 26.3724 134.539 27.0039ZM148.27 37.2285C147.423 37.2285 146.681 37.1048 146.043 36.8574C145.405 36.61 144.887 36.2552 144.49 35.793C144.1 35.3307 143.855 34.7741 143.758 34.123L145.779 34.0352C145.877 34.3542 146.036 34.6243 146.258 34.8457C146.486 35.0736 146.769 35.2461 147.107 35.3633C147.446 35.4805 147.83 35.5391 148.26 35.5391C149.1 35.5391 149.754 35.3177 150.223 34.875C150.698 34.4388 150.936 33.804 150.936 32.9707V31.3398H150.906C150.685 31.7174 150.418 32.0397 150.105 32.3066C149.793 32.5671 149.438 32.7656 149.041 32.9023C148.65 33.0326 148.214 33.0977 147.732 33.0977C146.847 33.0977 146.066 32.8763 145.389 32.4336C144.712 31.9844 144.188 31.3626 143.816 30.5684C143.445 29.7676 143.26 28.8398 143.26 27.7852C143.26 26.7174 143.445 25.7832 143.816 24.9824C144.194 24.1751 144.718 23.5469 145.389 23.0977C146.066 22.6484 146.847 22.4238 147.732 22.4238C148.208 22.4238 148.644 22.4922 149.041 22.6289C149.445 22.7656 149.806 22.9674 150.125 23.2344C150.444 23.5013 150.714 23.8268 150.936 24.2109H150.955V22.6191H152.996V32.9023C152.996 33.931 152.785 34.7611 152.361 35.3926C151.938 36.0306 151.368 36.4961 150.652 36.7891C149.936 37.082 149.142 37.2285 148.27 37.2285ZM148.162 31.3301C148.748 31.3301 149.256 31.1836 149.686 30.8906C150.122 30.5977 150.457 30.1842 150.691 29.6504C150.926 29.1165 151.043 28.4883 151.043 27.7656C151.043 27.043 150.926 26.4147 150.691 25.8809C150.457 25.3405 150.125 24.9238 149.695 24.6309C149.266 24.3314 148.755 24.1816 148.162 24.1816C147.602 24.1816 147.111 24.3216 146.688 24.6016C146.271 24.8815 145.945 25.2884 145.711 25.8223C145.477 26.3561 145.359 27.0039 145.359 27.7656C145.359 28.5273 145.477 29.1751 145.711 29.709C145.945 30.2428 146.271 30.6465 146.688 30.9199C147.111 31.1934 147.602 31.3301 148.162 31.3301Z" fill="black"/>
<defs>
<clipPath id="clip0_802_174">
<rect width="24" height="24" fill="white" transform="translate(16 14)"/>
</clipPath>
</defs>
</svg>
