<svg width="259" height="52" viewBox="0 0 259 52" fill="none" xmlns="http://www.w3.org/2000/svg">
<rect width="259" height="52" rx="26" fill="white"/>
<g clip-path="url(#clip0_802_167)">
<path d="M28 16C28.9889 16 29.9556 16.2932 30.7779 16.8427C31.6001 17.3921 32.241 18.173 32.6194 19.0866C32.9978 20.0002 33.0969 21.0055 32.9039 21.9755C32.711 22.9454 32.2348 23.8363 31.5355 24.5355C30.8363 25.2348 29.9454 25.711 28.9755 25.9039C28.0055 26.0969 27.0002 25.9978 26.0866 25.6194C25.173 25.241 24.3921 24.6001 23.8427 23.7779C23.2932 22.9556 23 21.9889 23 21L23.005 20.783C23.0609 19.4958 23.6116 18.2798 24.5422 17.3887C25.4728 16.4975 26.7115 16.0001 28 16Z" fill="#0DCD30"/>
<path d="M30 28C31.3261 28 32.5979 28.5268 33.5355 29.4645C34.4732 30.4021 35 31.6739 35 33V34C35 34.5304 34.7893 35.0391 34.4142 35.4142C34.0391 35.7893 33.5304 36 33 36H23C22.4696 36 21.9609 35.7893 21.5858 35.4142C21.2107 35.0391 21 34.5304 21 34V33C21 31.6739 21.5268 30.4021 22.4645 29.4645C23.4021 28.5268 24.6739 28 26 28H30Z" fill="#0DCD30"/>
</g>
<path d="M53.3574 33V18.4492H58.7285C59.7767 18.4492 60.6784 18.638 61.4336 19.0156C62.1953 19.3867 62.778 19.9141 63.1816 20.5977C63.5918 21.2747 63.7969 22.0755 63.7969 23C63.7969 23.9245 63.5885 24.7285 63.1719 25.4121C62.7552 26.0957 62.1628 26.6263 61.3945 27.0039C60.6263 27.3815 59.7181 27.5703 58.6699 27.5703H54.5488V25.6855H58.6113C59.2493 25.6855 59.793 25.5781 60.2422 25.3633C60.6914 25.1419 61.0365 24.8294 61.2773 24.4258C61.5182 24.0221 61.6387 23.5469 61.6387 23C61.6387 22.4531 61.5182 21.9811 61.2773 21.584C61.0365 21.1868 60.6914 20.8809 60.2422 20.666C59.793 20.4447 59.2493 20.334 58.6113 20.334H55.5352V33H53.3574ZM68.748 33.166C68.0645 33.166 67.4525 33.0488 66.9121 32.8145C66.3717 32.5801 65.9453 32.2318 65.6328 31.7695C65.3203 31.3008 65.1641 30.7246 65.1641 30.041C65.1641 29.4421 65.2747 28.9538 65.4961 28.5762C65.724 28.1986 66.0299 27.8991 66.4141 27.6777C66.8047 27.4564 67.2441 27.2904 67.7324 27.1797C68.2207 27.0625 68.7253 26.9746 69.2461 26.916C69.8971 26.8314 70.4115 26.7663 70.7891 26.7207C71.1667 26.6686 71.4368 26.5905 71.5996 26.4863C71.7689 26.3757 71.8535 26.1966 71.8535 25.9492V25.8613C71.8535 25.5163 71.7689 25.2135 71.5996 24.9531C71.4368 24.6927 71.1992 24.4909 70.8867 24.3477C70.5807 24.1979 70.2064 24.123 69.7637 24.123C69.321 24.123 68.9303 24.1947 68.5918 24.3379C68.2598 24.4811 67.9928 24.6764 67.791 24.9238C67.5957 25.1712 67.4818 25.4512 67.4492 25.7637L65.418 25.7051C65.4766 25.0475 65.6947 24.4746 66.0723 23.9863C66.4499 23.4915 66.9544 23.1074 67.5859 22.834C68.2174 22.5605 68.9499 22.4238 69.7832 22.4238C70.3952 22.4238 70.9551 22.502 71.4629 22.6582C71.9707 22.8145 72.4036 23.0423 72.7617 23.3418C73.1263 23.6413 73.4062 24.0059 73.6016 24.4355C73.8034 24.8652 73.9043 25.3568 73.9043 25.9102V33H71.8633V31.5352H71.8242C71.681 31.8151 71.4824 32.0788 71.2285 32.3262C70.9746 32.5736 70.6458 32.7754 70.2422 32.9316C69.8385 33.0879 69.3405 33.166 68.748 33.166ZM69.1777 31.5059C69.7832 31.5059 70.2845 31.3952 70.6816 31.1738C71.0788 30.9525 71.3717 30.6628 71.5605 30.3047C71.7559 29.9466 71.8535 29.556 71.8535 29.1328V27.9023C71.7819 27.9609 71.6615 28.0163 71.4922 28.0684C71.3294 28.1139 71.1309 28.1595 70.8965 28.2051C70.6621 28.2507 70.4115 28.2962 70.1445 28.3418C69.8841 28.3809 69.6237 28.4199 69.3633 28.459C68.9857 28.5111 68.6341 28.599 68.3086 28.7227C67.9831 28.8398 67.7194 29.0059 67.5176 29.2207C67.3158 29.4355 67.2148 29.7188 67.2148 30.0703C67.2148 30.3698 67.2962 30.627 67.459 30.8418C67.6217 31.0566 67.8496 31.2227 68.1426 31.3398C68.4355 31.4505 68.7806 31.5059 69.1777 31.5059ZM81.2383 22.6191V24.3281H75.2617V22.6191H81.2383ZM77.0586 19.8359H79.1289V30.2461C79.1289 30.6367 79.2103 30.9102 79.373 31.0664C79.5358 31.2227 79.8223 31.3008 80.2324 31.3008C80.3822 31.3008 80.5514 31.3008 80.7402 31.3008C80.929 31.2943 81.0918 31.291 81.2285 31.291L81.2676 32.9902C81.0918 32.9967 80.8835 33.0033 80.6426 33.0098C80.4017 33.0163 80.1706 33.0195 79.9492 33.0195C78.9792 33.0195 78.2533 32.8112 77.7715 32.3945C77.2962 31.9714 77.0586 31.3398 77.0586 30.5V19.8359ZM82.9375 33V22.6191H85.0078V33H82.9375ZM83.9727 20.8613C83.6016 20.8613 83.2891 20.7376 83.0352 20.4902C82.7878 20.2428 82.6641 19.9434 82.6641 19.5918C82.6641 19.2337 82.7878 18.9342 83.0352 18.6934C83.2891 18.446 83.5983 18.3223 83.9629 18.3223C84.334 18.3223 84.6465 18.446 84.9004 18.6934C85.1543 18.9342 85.2812 19.2337 85.2812 19.5918C85.2812 19.9434 85.1543 20.2428 84.9004 20.4902C84.6465 20.7376 84.3372 20.8613 83.9727 20.8613ZM91.834 33.2344C90.8053 33.2344 89.9199 33.0033 89.1777 32.541C88.4421 32.0788 87.8757 31.4408 87.4785 30.627C87.0879 29.8132 86.8926 28.8822 86.8926 27.834C86.8926 26.7728 87.0944 25.8353 87.498 25.0215C87.9082 24.2012 88.4746 23.5599 89.1973 23.0977C89.9264 22.6289 90.7663 22.3945 91.7168 22.3945C92.4329 22.3945 93.084 22.5215 93.6699 22.7754C94.2624 23.0293 94.7702 23.3939 95.1934 23.8691C95.623 24.3444 95.9518 24.9141 96.1797 25.5781C96.4141 26.2422 96.5312 26.9811 96.5312 27.7949V28.3809H87.8496V26.8184H95.4473L94.5293 27.2969C94.5293 26.6523 94.4154 26.0924 94.1875 25.6172C93.9596 25.1419 93.6374 24.7741 93.2207 24.5137C92.804 24.2533 92.306 24.123 91.7266 24.123C91.1602 24.123 90.6654 24.2533 90.2422 24.5137C89.8255 24.7741 89.5033 25.1419 89.2754 25.6172C89.0475 26.0859 88.9336 26.6361 88.9336 27.2676V28.1855C88.9336 28.8431 89.0475 29.4225 89.2754 29.9238C89.5033 30.4251 89.8353 30.8158 90.2715 31.0957C90.7142 31.3691 91.2448 31.5059 91.8633 31.5059C92.306 31.5059 92.6966 31.4375 93.0352 31.3008C93.3802 31.1641 93.6667 30.9753 93.8945 30.7344C94.1289 30.487 94.2949 30.1973 94.3926 29.8652L96.3848 29.9238C96.248 30.5749 95.9681 31.151 95.5449 31.6523C95.1217 32.1471 94.5911 32.5345 93.9531 32.8145C93.3151 33.0944 92.6087 33.2344 91.834 33.2344ZM100.457 27.0039V33H98.3867V22.6191H100.418V25.1973H99.9688C100.301 24.2663 100.766 23.5729 101.365 23.1172C101.971 22.6549 102.703 22.4238 103.562 22.4238C104.272 22.4238 104.907 22.5801 105.467 22.8926C106.033 23.1986 106.479 23.6543 106.805 24.2598C107.13 24.8652 107.293 25.6172 107.293 26.5156V33H105.213V26.7793C105.213 25.9525 105.014 25.3275 104.617 24.9043C104.227 24.4811 103.67 24.2695 102.947 24.2695C102.485 24.2695 102.065 24.3672 101.688 24.5625C101.31 24.7513 101.01 25.0475 100.789 25.4512C100.568 25.8548 100.457 26.3724 100.457 27.0039ZM114.617 22.6191V24.3281H108.641V22.6191H114.617ZM110.438 19.8359H112.508V30.2461C112.508 30.6367 112.589 30.9102 112.752 31.0664C112.915 31.2227 113.201 31.3008 113.611 31.3008C113.761 31.3008 113.93 31.3008 114.119 31.3008C114.308 31.2943 114.471 31.291 114.607 31.291L114.646 32.9902C114.471 32.9967 114.262 33.0033 114.021 33.0098C113.781 33.0163 113.549 33.0195 113.328 33.0195C112.358 33.0195 111.632 32.8112 111.15 32.3945C110.675 31.9714 110.438 31.3398 110.438 30.5V19.8359ZM121.141 33V22.6191H123.152V24.8359H122.967C123.156 24.3021 123.413 23.8561 123.738 23.498C124.07 23.14 124.451 22.873 124.881 22.6973C125.311 22.515 125.763 22.4238 126.238 22.4238C127.033 22.4238 127.71 22.6549 128.27 23.1172C128.829 23.5729 129.178 24.1491 129.314 24.8457H128.992C129.135 24.377 129.37 23.9603 129.695 23.5957C130.027 23.2311 130.428 22.9447 130.896 22.7363C131.372 22.528 131.896 22.4238 132.469 22.4238C133.107 22.4238 133.686 22.5638 134.207 22.8438C134.728 23.1172 135.141 23.5306 135.447 24.084C135.753 24.6374 135.906 25.3275 135.906 26.1543V33H133.836V26.3301C133.836 25.5944 133.631 25.0638 133.221 24.7383C132.811 24.4062 132.326 24.2402 131.766 24.2402C131.31 24.2402 130.916 24.3379 130.584 24.5332C130.252 24.722 129.995 24.9857 129.812 25.3242C129.637 25.6628 129.549 26.0534 129.549 26.4961V33H127.508V26.1934C127.508 25.6009 127.316 25.1289 126.932 24.7773C126.554 24.4193 126.072 24.2402 125.486 24.2402C125.083 24.2402 124.708 24.3346 124.363 24.5234C124.018 24.7057 123.738 24.9824 123.523 25.3535C123.315 25.7181 123.211 26.1706 123.211 26.7109V33H121.141ZM141.424 33.166C140.74 33.166 140.128 33.0488 139.588 32.8145C139.048 32.5801 138.621 32.2318 138.309 31.7695C137.996 31.3008 137.84 30.7246 137.84 30.041C137.84 29.4421 137.951 28.9538 138.172 28.5762C138.4 28.1986 138.706 27.8991 139.09 27.6777C139.48 27.4564 139.92 27.2904 140.408 27.1797C140.896 27.0625 141.401 26.9746 141.922 26.916C142.573 26.8314 143.087 26.7663 143.465 26.7207C143.842 26.6686 144.113 26.5905 144.275 26.4863C144.445 26.3757 144.529 26.1966 144.529 25.9492V25.8613C144.529 25.5163 144.445 25.2135 144.275 24.9531C144.113 24.6927 143.875 24.4909 143.562 24.3477C143.257 24.1979 142.882 24.123 142.439 24.123C141.997 24.123 141.606 24.1947 141.268 24.3379C140.936 24.4811 140.669 24.6764 140.467 24.9238C140.271 25.1712 140.158 25.4512 140.125 25.7637L138.094 25.7051C138.152 25.0475 138.37 24.4746 138.748 23.9863C139.126 23.4915 139.63 23.1074 140.262 22.834C140.893 22.5605 141.626 22.4238 142.459 22.4238C143.071 22.4238 143.631 22.502 144.139 22.6582C144.646 22.8145 145.079 23.0423 145.438 23.3418C145.802 23.6413 146.082 24.0059 146.277 24.4355C146.479 24.8652 146.58 25.3568 146.58 25.9102V33H144.539V31.5352H144.5C144.357 31.8151 144.158 32.0788 143.904 32.3262C143.65 32.5736 143.322 32.7754 142.918 32.9316C142.514 33.0879 142.016 33.166 141.424 33.166ZM141.854 31.5059C142.459 31.5059 142.96 31.3952 143.357 31.1738C143.755 30.9525 144.048 30.6628 144.236 30.3047C144.432 29.9466 144.529 29.556 144.529 29.1328V27.9023C144.458 27.9609 144.337 28.0163 144.168 28.0684C144.005 28.1139 143.807 28.1595 143.572 28.2051C143.338 28.2507 143.087 28.2962 142.82 28.3418C142.56 28.3809 142.299 28.4199 142.039 28.459C141.661 28.5111 141.31 28.599 140.984 28.7227C140.659 28.8398 140.395 29.0059 140.193 29.2207C139.992 29.4355 139.891 29.7188 139.891 30.0703C139.891 30.3698 139.972 30.627 140.135 30.8418C140.298 31.0566 140.525 31.2227 140.818 31.3398C141.111 31.4505 141.456 31.5059 141.854 31.5059ZM151.043 27.0039V33H148.973V22.6191H151.004V25.1973H150.555C150.887 24.2663 151.352 23.5729 151.951 23.1172C152.557 22.6549 153.289 22.4238 154.148 22.4238C154.858 22.4238 155.493 22.5801 156.053 22.8926C156.619 23.1986 157.065 23.6543 157.391 24.2598C157.716 24.8652 157.879 25.6172 157.879 26.5156V33H155.799V26.7793C155.799 25.9525 155.6 25.3275 155.203 24.9043C154.812 24.4811 154.256 24.2695 153.533 24.2695C153.071 24.2695 152.651 24.3672 152.273 24.5625C151.896 24.7513 151.596 25.0475 151.375 25.4512C151.154 25.8548 151.043 26.3724 151.043 27.0039ZM163.396 33.166C162.713 33.166 162.101 33.0488 161.561 32.8145C161.02 32.5801 160.594 32.2318 160.281 31.7695C159.969 31.3008 159.812 30.7246 159.812 30.041C159.812 29.4421 159.923 28.9538 160.145 28.5762C160.372 28.1986 160.678 27.8991 161.062 27.6777C161.453 27.4564 161.893 27.2904 162.381 27.1797C162.869 27.0625 163.374 26.9746 163.895 26.916C164.546 26.8314 165.06 26.7663 165.438 26.7207C165.815 26.6686 166.085 26.5905 166.248 26.4863C166.417 26.3757 166.502 26.1966 166.502 25.9492V25.8613C166.502 25.5163 166.417 25.2135 166.248 24.9531C166.085 24.6927 165.848 24.4909 165.535 24.3477C165.229 24.1979 164.855 24.123 164.412 24.123C163.969 24.123 163.579 24.1947 163.24 24.3379C162.908 24.4811 162.641 24.6764 162.439 24.9238C162.244 25.1712 162.13 25.4512 162.098 25.7637L160.066 25.7051C160.125 25.0475 160.343 24.4746 160.721 23.9863C161.098 23.4915 161.603 23.1074 162.234 22.834C162.866 22.5605 163.598 22.4238 164.432 22.4238C165.044 22.4238 165.604 22.502 166.111 22.6582C166.619 22.8145 167.052 23.0423 167.41 23.3418C167.775 23.6413 168.055 24.0059 168.25 24.4355C168.452 24.8652 168.553 25.3568 168.553 25.9102V33H166.512V31.5352H166.473C166.329 31.8151 166.131 32.0788 165.877 32.3262C165.623 32.5736 165.294 32.7754 164.891 32.9316C164.487 33.0879 163.989 33.166 163.396 33.166ZM163.826 31.5059C164.432 31.5059 164.933 31.3952 165.33 31.1738C165.727 30.9525 166.02 30.6628 166.209 30.3047C166.404 29.9466 166.502 29.556 166.502 29.1328V27.9023C166.43 27.9609 166.31 28.0163 166.141 28.0684C165.978 28.1139 165.779 28.1595 165.545 28.2051C165.311 28.2507 165.06 28.2962 164.793 28.3418C164.533 28.3809 164.272 28.4199 164.012 28.459C163.634 28.5111 163.283 28.599 162.957 28.7227C162.632 28.8398 162.368 29.0059 162.166 29.2207C161.964 29.4355 161.863 29.7188 161.863 30.0703C161.863 30.3698 161.945 30.627 162.107 30.8418C162.27 31.0566 162.498 31.2227 162.791 31.3398C163.084 31.4505 163.429 31.5059 163.826 31.5059ZM175.457 37.2285C174.611 37.2285 173.868 37.1048 173.23 36.8574C172.592 36.61 172.075 36.2552 171.678 35.793C171.287 35.3307 171.043 34.7741 170.945 34.123L172.967 34.0352C173.064 34.3542 173.224 34.6243 173.445 34.8457C173.673 35.0736 173.956 35.2461 174.295 35.3633C174.633 35.4805 175.018 35.5391 175.447 35.5391C176.287 35.5391 176.941 35.3177 177.41 34.875C177.885 34.4388 178.123 33.804 178.123 32.9707V31.3398H178.094C177.872 31.7174 177.605 32.0397 177.293 32.3066C176.98 32.5671 176.626 32.7656 176.229 32.9023C175.838 33.0326 175.402 33.0977 174.92 33.0977C174.035 33.0977 173.253 32.8763 172.576 32.4336C171.899 31.9844 171.375 31.3626 171.004 30.5684C170.633 29.7676 170.447 28.8398 170.447 27.7852C170.447 26.7174 170.633 25.7832 171.004 24.9824C171.382 24.1751 171.906 23.5469 172.576 23.0977C173.253 22.6484 174.035 22.4238 174.92 22.4238C175.395 22.4238 175.831 22.4922 176.229 22.6289C176.632 22.7656 176.993 22.9674 177.312 23.2344C177.632 23.5013 177.902 23.8268 178.123 24.2109H178.143V22.6191H180.184V32.9023C180.184 33.931 179.972 34.7611 179.549 35.3926C179.126 36.0306 178.556 36.4961 177.84 36.7891C177.124 37.082 176.329 37.2285 175.457 37.2285ZM175.35 31.3301C175.936 31.3301 176.443 31.1836 176.873 30.8906C177.309 30.5977 177.645 30.1842 177.879 29.6504C178.113 29.1165 178.23 28.4883 178.23 27.7656C178.23 27.043 178.113 26.4147 177.879 25.8809C177.645 25.3405 177.312 24.9238 176.883 24.6309C176.453 24.3314 175.942 24.1816 175.35 24.1816C174.79 24.1816 174.298 24.3216 173.875 24.6016C173.458 24.8815 173.133 25.2884 172.898 25.8223C172.664 26.3561 172.547 27.0039 172.547 27.7656C172.547 28.5273 172.664 29.1751 172.898 29.709C173.133 30.2428 173.458 30.6465 173.875 30.9199C174.298 31.1934 174.79 31.3301 175.35 31.3301ZM187.01 33.2344C185.981 33.2344 185.096 33.0033 184.354 32.541C183.618 32.0788 183.051 31.4408 182.654 30.627C182.264 29.8132 182.068 28.8822 182.068 27.834C182.068 26.7728 182.27 25.8353 182.674 25.0215C183.084 24.2012 183.65 23.5599 184.373 23.0977C185.102 22.6289 185.942 22.3945 186.893 22.3945C187.609 22.3945 188.26 22.5215 188.846 22.7754C189.438 23.0293 189.946 23.3939 190.369 23.8691C190.799 24.3444 191.128 24.9141 191.355 25.5781C191.59 26.2422 191.707 26.9811 191.707 27.7949V28.3809H183.025V26.8184H190.623L189.705 27.2969C189.705 26.6523 189.591 26.0924 189.363 25.6172C189.135 25.1419 188.813 24.7741 188.396 24.5137C187.98 24.2533 187.482 24.123 186.902 24.123C186.336 24.123 185.841 24.2533 185.418 24.5137C185.001 24.7741 184.679 25.1419 184.451 25.6172C184.223 26.0859 184.109 26.6361 184.109 27.2676V28.1855C184.109 28.8431 184.223 29.4225 184.451 29.9238C184.679 30.4251 185.011 30.8158 185.447 31.0957C185.89 31.3691 186.421 31.5059 187.039 31.5059C187.482 31.5059 187.872 31.4375 188.211 31.3008C188.556 31.1641 188.842 30.9753 189.07 30.7344C189.305 30.487 189.471 30.1973 189.568 29.8652L191.561 29.9238C191.424 30.5749 191.144 31.151 190.721 31.6523C190.298 32.1471 189.767 32.5345 189.129 32.8145C188.491 33.0944 187.785 33.2344 187.01 33.2344ZM193.562 33V22.6191H195.574V24.8359H195.389C195.577 24.3021 195.835 23.8561 196.16 23.498C196.492 23.14 196.873 22.873 197.303 22.6973C197.732 22.515 198.185 22.4238 198.66 22.4238C199.454 22.4238 200.132 22.6549 200.691 23.1172C201.251 23.5729 201.6 24.1491 201.736 24.8457H201.414C201.557 24.377 201.792 23.9603 202.117 23.5957C202.449 23.2311 202.85 22.9447 203.318 22.7363C203.794 22.528 204.318 22.4238 204.891 22.4238C205.529 22.4238 206.108 22.5638 206.629 22.8438C207.15 23.1172 207.563 23.5306 207.869 24.084C208.175 24.6374 208.328 25.3275 208.328 26.1543V33H206.258V26.3301C206.258 25.5944 206.053 25.0638 205.643 24.7383C205.232 24.4062 204.747 24.2402 204.188 24.2402C203.732 24.2402 203.338 24.3379 203.006 24.5332C202.674 24.722 202.417 24.9857 202.234 25.3242C202.059 25.6628 201.971 26.0534 201.971 26.4961V33H199.93V26.1934C199.93 25.6009 199.738 25.1289 199.354 24.7773C198.976 24.4193 198.494 24.2402 197.908 24.2402C197.505 24.2402 197.13 24.3346 196.785 24.5234C196.44 24.7057 196.16 24.9824 195.945 25.3535C195.737 25.7181 195.633 26.1706 195.633 26.7109V33H193.562ZM215.154 33.2344C214.126 33.2344 213.24 33.0033 212.498 32.541C211.762 32.0788 211.196 31.4408 210.799 30.627C210.408 29.8132 210.213 28.8822 210.213 27.834C210.213 26.7728 210.415 25.8353 210.818 25.0215C211.229 24.2012 211.795 23.5599 212.518 23.0977C213.247 22.6289 214.087 22.3945 215.037 22.3945C215.753 22.3945 216.404 22.5215 216.99 22.7754C217.583 23.0293 218.09 23.3939 218.514 23.8691C218.943 24.3444 219.272 24.9141 219.5 25.5781C219.734 26.2422 219.852 26.9811 219.852 27.7949V28.3809H211.17V26.8184H218.768L217.85 27.2969C217.85 26.6523 217.736 26.0924 217.508 25.6172C217.28 25.1419 216.958 24.7741 216.541 24.5137C216.124 24.2533 215.626 24.123 215.047 24.123C214.48 24.123 213.986 24.2533 213.562 24.5137C213.146 24.7741 212.824 25.1419 212.596 25.6172C212.368 26.0859 212.254 26.6361 212.254 27.2676V28.1855C212.254 28.8431 212.368 29.4225 212.596 29.9238C212.824 30.4251 213.156 30.8158 213.592 31.0957C214.035 31.3691 214.565 31.5059 215.184 31.5059C215.626 31.5059 216.017 31.4375 216.355 31.3008C216.701 31.1641 216.987 30.9753 217.215 30.7344C217.449 30.487 217.615 30.1973 217.713 29.8652L219.705 29.9238C219.568 30.5749 219.288 31.151 218.865 31.6523C218.442 32.1471 217.911 32.5345 217.273 32.8145C216.635 33.0944 215.929 33.2344 215.154 33.2344ZM223.777 27.0039V33H221.707V22.6191H223.738V25.1973H223.289C223.621 24.2663 224.087 23.5729 224.686 23.1172C225.291 22.6549 226.023 22.4238 226.883 22.4238C227.592 22.4238 228.227 22.5801 228.787 22.8926C229.354 23.1986 229.799 23.6543 230.125 24.2598C230.451 24.8652 230.613 25.6172 230.613 26.5156V33H228.533V26.7793C228.533 25.9525 228.335 25.3275 227.938 24.9043C227.547 24.4811 226.99 24.2695 226.268 24.2695C225.805 24.2695 225.385 24.3672 225.008 24.5625C224.63 24.7513 224.331 25.0475 224.109 25.4512C223.888 25.8548 223.777 26.3724 223.777 27.0039ZM237.938 22.6191V24.3281H231.961V22.6191H237.938ZM233.758 19.8359H235.828V30.2461C235.828 30.6367 235.91 30.9102 236.072 31.0664C236.235 31.2227 236.521 31.3008 236.932 31.3008C237.081 31.3008 237.251 31.3008 237.439 31.3008C237.628 31.2943 237.791 31.291 237.928 31.291L237.967 32.9902C237.791 32.9967 237.583 33.0033 237.342 33.0098C237.101 33.0163 236.87 33.0195 236.648 33.0195C235.678 33.0195 234.952 32.8112 234.471 32.3945C233.995 31.9714 233.758 31.3398 233.758 30.5V19.8359Z" fill="black"/>
<defs>
<clipPath id="clip0_802_167">
<rect width="24" height="24" fill="white" transform="translate(16 14)"/>
</clipPath>
</defs>
</svg>
