<svg width="173" height="52" viewBox="0 0 173 52" fill="none" xmlns="http://www.w3.org/2000/svg">
<rect width="173" height="52" rx="26" fill="white"/>
<g clip-path="url(#clip0_802_152)">
<path d="M24 26C24.2652 26 24.5196 26.1054 24.7071 26.2929C24.8946 26.4804 25 26.7348 25 27V31C25 31.2652 24.8946 31.5196 24.7071 31.7071C24.5196 31.8946 24.2652 32 24 32C23.7348 32 23.4804 31.8946 23.2929 31.7071C23.1054 31.5196 23 31.2652 23 31V27C23 26.7348 23.1054 26.4804 23.2929 26.2929C23.4804 26.1054 23.7348 26 24 26Z" fill="#FE807E"/>
<path d="M28 26C28.2652 26 28.5196 26.1054 28.7071 26.2929C28.8946 26.4804 29 26.7348 29 27V31C29 31.2652 28.8946 31.5196 28.7071 31.7071C28.5196 31.8946 28.2652 32 28 32C27.7348 32 27.4804 31.8946 27.2929 31.7071C27.1054 31.5196 27 31.2652 27 31V27C27 26.7348 27.1054 26.4804 27.2929 26.2929C27.4804 26.1054 27.7348 26 28 26Z" fill="#FE807E"/>
<path d="M32 26C32.2652 26 32.5196 26.1054 32.7071 26.2929C32.8946 26.4804 33 26.7348 33 27V31C33 31.2652 32.8946 31.5196 32.7071 31.7071C32.5196 31.8946 32.2652 32 32 32C31.7348 32 31.4804 31.8946 31.2929 31.7071C31.1054 31.5196 31 31.2652 31 31V27C31 26.7348 31.1054 26.4804 31.2929 26.2929C31.4804 26.1054 31.7348 26 32 26Z" fill="#FE807E"/>
<path d="M32 16C32.2449 16 32.4813 16.09 32.6644 16.2527C32.8474 16.4155 32.9643 16.6397 32.993 16.883L33 17V18H34C34.7652 18 35.5015 18.2923 36.0583 18.8173C36.615 19.3422 36.9501 20.0601 36.995 20.824L37 21V33C37 33.7652 36.7077 34.5015 36.1827 35.0583C35.6578 35.615 34.9399 35.9501 34.176 35.995L34 36H22C21.2348 36 20.4985 35.7077 19.9417 35.1827C19.385 34.6578 19.0499 33.9399 19.005 33.176L19 33V21C19 20.2348 19.2923 19.4985 19.8173 18.9417C20.3422 18.385 21.0601 18.0499 21.824 18.005L22 18H23V17C23.0003 16.7451 23.0979 16.5 23.2728 16.3146C23.4478 16.1293 23.687 16.0178 23.9414 16.0028C24.1958 15.9879 24.4464 16.0707 24.6418 16.2343C24.8373 16.3979 24.9629 16.6299 24.993 16.883L25 17V18H31V17C31 16.7348 31.1054 16.4804 31.2929 16.2929C31.4804 16.1054 31.7348 16 32 16ZM35 23H21V32.625C21 33.33 21.386 33.911 21.883 33.991L22 34H34C34.513 34 34.936 33.47 34.993 32.785L35 32.625V23Z" fill="#FE807E"/>
</g>
<path d="M58.377 33.2344C57.2246 33.2344 56.2285 33.0391 55.3887 32.6484C54.5553 32.2513 53.9108 31.6914 53.4551 30.9688C53.0059 30.2396 52.778 29.3704 52.7715 28.3613H54.9395C54.9525 28.9863 55.0957 29.5234 55.3691 29.9727C55.6491 30.4154 56.043 30.7539 56.5508 30.9883C57.0651 31.2227 57.6771 31.3398 58.3867 31.3398C59.0378 31.3398 59.6074 31.2454 60.0957 31.0566C60.584 30.8613 60.9648 30.5911 61.2383 30.2461C61.5117 29.8945 61.6484 29.4811 61.6484 29.0059C61.6484 28.6283 61.5508 28.3027 61.3555 28.0293C61.1667 27.7493 60.8672 27.5085 60.457 27.3066C60.0469 27.0983 59.513 26.9193 58.8555 26.7695L57.2441 26.3789C55.8053 26.0339 54.7507 25.5456 54.0801 24.9141C53.4095 24.2826 53.0742 23.4655 53.0742 22.4629C53.0742 21.61 53.2891 20.8678 53.7188 20.2363C54.1484 19.5983 54.7539 19.1035 55.5352 18.752C56.3164 18.3939 57.2246 18.2148 58.2598 18.2148C59.2949 18.2148 60.1966 18.4004 60.9648 18.7715C61.7331 19.1426 62.332 19.6667 62.7617 20.3438C63.1914 21.0143 63.4193 21.8151 63.4453 22.7461H61.3359C61.2839 21.9258 60.9779 21.2845 60.418 20.8223C59.8646 20.3535 59.1322 20.1191 58.2207 20.1191C57.6413 20.1191 57.127 20.2135 56.6777 20.4023C56.2285 20.5911 55.877 20.8548 55.623 21.1934C55.3691 21.5319 55.2422 21.9193 55.2422 22.3555C55.2422 22.7135 55.3398 23.026 55.5352 23.293C55.7305 23.5534 56.0332 23.7812 56.4434 23.9766C56.8535 24.1719 57.3743 24.3444 58.0059 24.4941L59.5488 24.8652C60.252 25.0345 60.8672 25.2396 61.3945 25.4805C61.9284 25.7214 62.3743 26.0078 62.7324 26.3398C63.0905 26.6654 63.3607 27.043 63.543 27.4727C63.7253 27.8958 63.8164 28.3743 63.8164 28.9082C63.8164 29.7741 63.5918 30.5326 63.1426 31.1836C62.6999 31.8346 62.0716 32.3392 61.2578 32.6973C60.444 33.0553 59.4837 33.2344 58.377 33.2344ZM70.2031 33.2344C69.2201 33.2344 68.3574 33.0065 67.6152 32.5508C66.873 32.0885 66.2969 31.4538 65.8867 30.6465C65.4766 29.8327 65.2715 28.8952 65.2715 27.834C65.2715 26.7663 65.4766 25.8255 65.8867 25.0117C66.2969 24.1914 66.873 23.5501 67.6152 23.0879C68.3574 22.6257 69.2201 22.3945 70.2031 22.3945C70.8151 22.3945 71.3783 22.4857 71.8926 22.668C72.4134 22.8503 72.8724 23.1074 73.2695 23.4395C73.6667 23.765 73.9889 24.1556 74.2363 24.6113C74.4902 25.0605 74.653 25.5553 74.7246 26.0957L72.6738 26.1543C72.6217 25.8613 72.5273 25.5944 72.3906 25.3535C72.2604 25.1126 72.0911 24.9076 71.8828 24.7383C71.6745 24.5625 71.4303 24.4258 71.1504 24.3281C70.877 24.2305 70.5645 24.1816 70.2129 24.1816C69.6139 24.1816 69.0996 24.3346 68.6699 24.6406C68.2467 24.9401 67.9212 25.3633 67.6934 25.9102C67.472 26.457 67.3613 27.0983 67.3613 27.834C67.3613 28.5566 67.472 29.1914 67.6934 29.7383C67.9212 30.2786 68.2467 30.6986 68.6699 30.998C69.0996 31.2975 69.6139 31.4473 70.2129 31.4473C70.5645 31.4473 70.877 31.4017 71.1504 31.3105C71.4238 31.2194 71.6582 31.0859 71.8535 30.9102C72.0553 30.7344 72.2214 30.526 72.3516 30.2852C72.4883 30.0378 72.5892 29.7643 72.6543 29.4648L74.7246 29.5234C74.6595 30.0573 74.5033 30.5488 74.2559 30.998C74.0085 31.4473 73.6829 31.8411 73.2793 32.1797C72.8822 32.5117 72.4232 32.7721 71.9023 32.9609C71.3815 33.1432 70.8151 33.2344 70.2031 33.2344ZM78.6211 27.0039V33H76.5508V18.4492H78.6211V25.1973H78.1328C78.4648 24.2663 78.9303 23.5729 79.5293 23.1172C80.1348 22.6549 80.8672 22.4238 81.7266 22.4238C82.4362 22.4238 83.071 22.5801 83.6309 22.8926C84.1973 23.1986 84.6432 23.6543 84.9688 24.2598C85.2943 24.8652 85.457 25.6172 85.457 26.5156V33H83.377V26.7793C83.377 25.9525 83.1784 25.3275 82.7812 24.9043C82.3906 24.4811 81.834 24.2695 81.1113 24.2695C80.6491 24.2695 80.2292 24.3672 79.8516 24.5625C79.474 24.7513 79.1745 25.0475 78.9531 25.4512C78.7318 25.8548 78.6211 26.3724 78.6211 27.0039ZM92.2832 33.2344C91.2546 33.2344 90.3691 33.0033 89.627 32.541C88.8913 32.0788 88.3249 31.4408 87.9277 30.627C87.5371 29.8132 87.3418 28.8822 87.3418 27.834C87.3418 26.7728 87.5436 25.8353 87.9473 25.0215C88.3574 24.2012 88.9238 23.5599 89.6465 23.0977C90.3757 22.6289 91.2155 22.3945 92.166 22.3945C92.8822 22.3945 93.5332 22.5215 94.1191 22.7754C94.7116 23.0293 95.2194 23.3939 95.6426 23.8691C96.0723 24.3444 96.401 24.9141 96.6289 25.5781C96.8633 26.2422 96.9805 26.9811 96.9805 27.7949V28.3809H88.2988V26.8184H95.8965L94.9785 27.2969C94.9785 26.6523 94.8646 26.0924 94.6367 25.6172C94.4089 25.1419 94.0866 24.7741 93.6699 24.5137C93.2533 24.2533 92.7552 24.123 92.1758 24.123C91.6094 24.123 91.1146 24.2533 90.6914 24.5137C90.2747 24.7741 89.9525 25.1419 89.7246 25.6172C89.4967 26.0859 89.3828 26.6361 89.3828 27.2676V28.1855C89.3828 28.8431 89.4967 29.4225 89.7246 29.9238C89.9525 30.4251 90.2845 30.8158 90.7207 31.0957C91.1634 31.3691 91.694 31.5059 92.3125 31.5059C92.7552 31.5059 93.1458 31.4375 93.4844 31.3008C93.8294 31.1641 94.1159 30.9753 94.3438 30.7344C94.5781 30.487 94.7441 30.1973 94.8418 29.8652L96.834 29.9238C96.6973 30.5749 96.4173 31.151 95.9941 31.6523C95.571 32.1471 95.0404 32.5345 94.4023 32.8145C93.7643 33.0944 93.0579 33.2344 92.2832 33.2344ZM102.811 33.2051C101.919 33.2051 101.134 32.9805 100.457 32.5312C99.7865 32.0755 99.2656 31.444 98.8945 30.6367C98.5234 29.8294 98.3379 28.8887 98.3379 27.8145C98.3379 26.7402 98.5234 25.7995 98.8945 24.9922C99.2721 24.1784 99.7962 23.5469 100.467 23.0977C101.144 22.6484 101.925 22.4238 102.811 22.4238C103.286 22.4238 103.722 22.4922 104.119 22.6289C104.516 22.7656 104.871 22.9609 105.184 23.2148C105.496 23.4688 105.757 23.778 105.965 24.1426H105.994V18.4492H108.074V33H106.033V31.418H106.004C105.783 31.7956 105.512 32.1178 105.193 32.3848C104.874 32.6517 104.516 32.8568 104.119 33C103.722 33.1367 103.286 33.2051 102.811 33.2051ZM103.24 31.418C103.826 31.418 104.334 31.2682 104.764 30.9688C105.2 30.6693 105.535 30.2493 105.77 29.709C106.004 29.1686 106.121 28.5339 106.121 27.8047C106.121 27.0755 106.004 26.4408 105.77 25.9004C105.535 25.36 105.2 24.9434 104.764 24.6504C104.334 24.3509 103.826 24.2012 103.24 24.2012C102.68 24.2012 102.189 24.3411 101.766 24.6211C101.342 24.901 101.014 25.3112 100.779 25.8516C100.551 26.3854 100.438 27.0365 100.438 27.8047C100.438 28.5729 100.555 29.2272 100.789 29.7676C101.023 30.3079 101.349 30.7181 101.766 30.998C102.189 31.278 102.68 31.418 103.24 31.418ZM114.188 33.1953C113.478 33.1953 112.84 33.0423 112.273 32.7363C111.714 32.4238 111.271 31.9648 110.945 31.3594C110.62 30.7474 110.457 29.9954 110.457 29.1035V22.6191H112.527V28.8496C112.527 29.6634 112.726 30.2852 113.123 30.7148C113.527 31.138 114.083 31.3496 114.793 31.3496C115.262 31.3496 115.685 31.2552 116.062 31.0664C116.44 30.8711 116.736 30.5716 116.951 30.168C117.173 29.7643 117.283 29.2467 117.283 28.6152V22.6191H119.363V33H117.332V30.4219H117.781C117.449 31.3529 116.98 32.0495 116.375 32.5117C115.77 32.9674 115.04 33.1953 114.188 33.1953ZM123.816 18.4492V33H121.746V18.4492H123.816ZM126.199 33V22.6191H128.27V33H126.199ZM127.234 20.8613C126.863 20.8613 126.551 20.7376 126.297 20.4902C126.049 20.2428 125.926 19.9434 125.926 19.5918C125.926 19.2337 126.049 18.9342 126.297 18.6934C126.551 18.446 126.86 18.3223 127.225 18.3223C127.596 18.3223 127.908 18.446 128.162 18.6934C128.416 18.9342 128.543 19.2337 128.543 19.5918C128.543 19.9434 128.416 20.2428 128.162 20.4902C127.908 20.7376 127.599 20.8613 127.234 20.8613ZM132.723 27.0039V33H130.652V22.6191H132.684V25.1973H132.234C132.566 24.2663 133.032 23.5729 133.631 23.1172C134.236 22.6549 134.969 22.4238 135.828 22.4238C136.538 22.4238 137.173 22.5801 137.732 22.8926C138.299 23.1986 138.745 23.6543 139.07 24.2598C139.396 24.8652 139.559 25.6172 139.559 26.5156V33H137.479V26.7793C137.479 25.9525 137.28 25.3275 136.883 24.9043C136.492 24.4811 135.936 24.2695 135.213 24.2695C134.751 24.2695 134.331 24.3672 133.953 24.5625C133.576 24.7513 133.276 25.0475 133.055 25.4512C132.833 25.8548 132.723 26.3724 132.723 27.0039ZM146.453 37.2285C145.607 37.2285 144.865 37.1048 144.227 36.8574C143.589 36.61 143.071 36.2552 142.674 35.793C142.283 35.3307 142.039 34.7741 141.941 34.123L143.963 34.0352C144.061 34.3542 144.22 34.6243 144.441 34.8457C144.669 35.0736 144.952 35.2461 145.291 35.3633C145.63 35.4805 146.014 35.5391 146.443 35.5391C147.283 35.5391 147.938 35.3177 148.406 34.875C148.882 34.4388 149.119 33.804 149.119 32.9707V31.3398H149.09C148.868 31.7174 148.602 32.0397 148.289 32.3066C147.977 32.5671 147.622 32.7656 147.225 32.9023C146.834 33.0326 146.398 33.0977 145.916 33.0977C145.031 33.0977 144.249 32.8763 143.572 32.4336C142.895 31.9844 142.371 31.3626 142 30.5684C141.629 29.7676 141.443 28.8398 141.443 27.7852C141.443 26.7174 141.629 25.7832 142 24.9824C142.378 24.1751 142.902 23.5469 143.572 23.0977C144.249 22.6484 145.031 22.4238 145.916 22.4238C146.391 22.4238 146.827 22.4922 147.225 22.6289C147.628 22.7656 147.99 22.9674 148.309 23.2344C148.628 23.5013 148.898 23.8268 149.119 24.2109H149.139V22.6191H151.18V32.9023C151.18 33.931 150.968 34.7611 150.545 35.3926C150.122 36.0306 149.552 36.4961 148.836 36.7891C148.12 37.082 147.326 37.2285 146.453 37.2285ZM146.346 31.3301C146.932 31.3301 147.439 31.1836 147.869 30.8906C148.305 30.5977 148.641 30.1842 148.875 29.6504C149.109 29.1165 149.227 28.4883 149.227 27.7656C149.227 27.043 149.109 26.4147 148.875 25.8809C148.641 25.3405 148.309 24.9238 147.879 24.6309C147.449 24.3314 146.938 24.1816 146.346 24.1816C145.786 24.1816 145.294 24.3216 144.871 24.6016C144.454 24.8815 144.129 25.2884 143.895 25.8223C143.66 26.3561 143.543 27.0039 143.543 27.7656C143.543 28.5273 143.66 29.1751 143.895 29.709C144.129 30.2428 144.454 30.6465 144.871 30.9199C145.294 31.1934 145.786 31.3301 146.346 31.3301Z" fill="black"/>
<defs>
<clipPath id="clip0_802_152">
<rect width="24" height="24" fill="white" transform="translate(16 14)"/>
</clipPath>
</defs>
</svg>
