<svg width="202" height="52" viewBox="0 0 202 52" fill="none" xmlns="http://www.w3.org/2000/svg">
<rect width="202" height="52" rx="26" fill="white"/>
<g clip-path="url(#clip0_802_180)">
<path d="M36.117 21.6248C35.9233 21.6024 35.7272 21.6372 35.553 21.7248L31 23.9998V27.9998L35.553 30.2748C35.7053 30.3509 35.8744 30.3868 36.0445 30.3792C36.2145 30.3717 36.3799 30.3208 36.5248 30.2315C36.6697 30.1422 36.7894 30.0173 36.8725 29.8688C36.9557 29.7203 36.9996 29.553 37 29.3828V22.6168C36.9997 22.372 36.9097 22.1358 36.747 21.953C36.5842 21.7702 36.3601 21.6534 36.117 21.6248Z" fill="#FF6F00"/>
<path d="M21 19C19.355 19 18 20.355 18 22V30C18 31.645 19.355 33 21 33H29C30.645 33 32 31.645 32 30V22C32 20.355 30.645 19 29 19H21Z" fill="#FF6F00"/>
</g>
<path d="M52.5176 20.3535V18.4492H63.9336V20.3535H59.3242V33H57.1465V20.3535H52.5176ZM70.0957 33.2344C69.0671 33.2344 68.1816 33.0033 67.4395 32.541C66.7038 32.0788 66.1374 31.4408 65.7402 30.627C65.3496 29.8132 65.1543 28.8822 65.1543 27.834C65.1543 26.7728 65.3561 25.8353 65.7598 25.0215C66.1699 24.2012 66.7363 23.5599 67.459 23.0977C68.1882 22.6289 69.028 22.3945 69.9785 22.3945C70.6947 22.3945 71.3457 22.5215 71.9316 22.7754C72.5241 23.0293 73.0319 23.3939 73.4551 23.8691C73.8848 24.3444 74.2135 24.9141 74.4414 25.5781C74.6758 26.2422 74.793 26.9811 74.793 27.7949V28.3809H66.1113V26.8184H73.709L72.791 27.2969C72.791 26.6523 72.6771 26.0924 72.4492 25.6172C72.2214 25.1419 71.8991 24.7741 71.4824 24.5137C71.0658 24.2533 70.5677 24.123 69.9883 24.123C69.4219 24.123 68.9271 24.2533 68.5039 24.5137C68.0872 24.7741 67.765 25.1419 67.5371 25.6172C67.3092 26.0859 67.1953 26.6361 67.1953 27.2676V28.1855C67.1953 28.8431 67.3092 29.4225 67.5371 29.9238C67.765 30.4251 68.097 30.8158 68.5332 31.0957C68.9759 31.3691 69.5065 31.5059 70.125 31.5059C70.5677 31.5059 70.9583 31.4375 71.2969 31.3008C71.6419 31.1641 71.9284 30.9753 72.1562 30.7344C72.3906 30.487 72.5566 30.1973 72.6543 29.8652L74.6465 29.9238C74.5098 30.5749 74.2298 31.151 73.8066 31.6523C73.3835 32.1471 72.8529 32.5345 72.2148 32.8145C71.5768 33.0944 70.8704 33.2344 70.0957 33.2344ZM78.7188 18.4492V33H76.6484V18.4492H78.7188ZM85.5449 33.2344C84.5163 33.2344 83.6309 33.0033 82.8887 32.541C82.153 32.0788 81.5866 31.4408 81.1895 30.627C80.7988 29.8132 80.6035 28.8822 80.6035 27.834C80.6035 26.7728 80.8053 25.8353 81.209 25.0215C81.6191 24.2012 82.1855 23.5599 82.9082 23.0977C83.6374 22.6289 84.4772 22.3945 85.4277 22.3945C86.1439 22.3945 86.7949 22.5215 87.3809 22.7754C87.9733 23.0293 88.4811 23.3939 88.9043 23.8691C89.334 24.3444 89.6628 24.9141 89.8906 25.5781C90.125 26.2422 90.2422 26.9811 90.2422 27.7949V28.3809H81.5605V26.8184H89.1582L88.2402 27.2969C88.2402 26.6523 88.1263 26.0924 87.8984 25.6172C87.6706 25.1419 87.3483 24.7741 86.9316 24.5137C86.515 24.2533 86.0169 24.123 85.4375 24.123C84.8711 24.123 84.3763 24.2533 83.9531 24.5137C83.5365 24.7741 83.2142 25.1419 82.9863 25.6172C82.7585 26.0859 82.6445 26.6361 82.6445 27.2676V28.1855C82.6445 28.8431 82.7585 29.4225 82.9863 29.9238C83.2142 30.4251 83.5462 30.8158 83.9824 31.0957C84.4251 31.3691 84.9557 31.5059 85.5742 31.5059C86.0169 31.5059 86.4076 31.4375 86.7461 31.3008C87.0911 31.1641 87.3776 30.9753 87.6055 30.7344C87.8398 30.487 88.0059 30.1973 88.1035 29.8652L90.0957 29.9238C89.959 30.5749 89.679 31.151 89.2559 31.6523C88.8327 32.1471 88.3021 32.5345 87.6641 32.8145C87.026 33.0944 86.3197 33.2344 85.5449 33.2344ZM98.5039 26.1934V28.0098H92.0586V26.1934H98.5039ZM100.848 33V22.6191H102.859V24.8359H102.674C102.863 24.3021 103.12 23.8561 103.445 23.498C103.777 23.14 104.158 22.873 104.588 22.6973C105.018 22.515 105.47 22.4238 105.945 22.4238C106.74 22.4238 107.417 22.6549 107.977 23.1172C108.536 23.5729 108.885 24.1491 109.021 24.8457H108.699C108.842 24.377 109.077 23.9603 109.402 23.5957C109.734 23.2311 110.135 22.9447 110.604 22.7363C111.079 22.528 111.603 22.4238 112.176 22.4238C112.814 22.4238 113.393 22.5638 113.914 22.8438C114.435 23.1172 114.848 23.5306 115.154 24.084C115.46 24.6374 115.613 25.3275 115.613 26.1543V33H113.543V26.3301C113.543 25.5944 113.338 25.0638 112.928 24.7383C112.518 24.4062 112.033 24.2402 111.473 24.2402C111.017 24.2402 110.623 24.3379 110.291 24.5332C109.959 24.722 109.702 24.9857 109.52 25.3242C109.344 25.6628 109.256 26.0534 109.256 26.4961V33H107.215V26.1934C107.215 25.6009 107.023 25.1289 106.639 24.7773C106.261 24.4193 105.779 24.2402 105.193 24.2402C104.79 24.2402 104.415 24.3346 104.07 24.5234C103.725 24.7057 103.445 24.9824 103.23 25.3535C103.022 25.7181 102.918 26.1706 102.918 26.7109V33H100.848ZM122.439 33.2344C121.411 33.2344 120.525 33.0033 119.783 32.541C119.048 32.0788 118.481 31.4408 118.084 30.627C117.693 29.8132 117.498 28.8822 117.498 27.834C117.498 26.7728 117.7 25.8353 118.104 25.0215C118.514 24.2012 119.08 23.5599 119.803 23.0977C120.532 22.6289 121.372 22.3945 122.322 22.3945C123.038 22.3945 123.689 22.5215 124.275 22.7754C124.868 23.0293 125.376 23.3939 125.799 23.8691C126.229 24.3444 126.557 24.9141 126.785 25.5781C127.02 26.2422 127.137 26.9811 127.137 27.7949V28.3809H118.455V26.8184H126.053L125.135 27.2969C125.135 26.6523 125.021 26.0924 124.793 25.6172C124.565 25.1419 124.243 24.7741 123.826 24.5137C123.41 24.2533 122.911 24.123 122.332 24.123C121.766 24.123 121.271 24.2533 120.848 24.5137C120.431 24.7741 120.109 25.1419 119.881 25.6172C119.653 26.0859 119.539 26.6361 119.539 27.2676V28.1855C119.539 28.8431 119.653 29.4225 119.881 29.9238C120.109 30.4251 120.441 30.8158 120.877 31.0957C121.32 31.3691 121.85 31.5059 122.469 31.5059C122.911 31.5059 123.302 31.4375 123.641 31.3008C123.986 31.1641 124.272 30.9753 124.5 30.7344C124.734 30.487 124.9 30.1973 124.998 29.8652L126.99 29.9238C126.854 30.5749 126.574 31.151 126.15 31.6523C125.727 32.1471 125.197 32.5345 124.559 32.8145C123.921 33.0944 123.214 33.2344 122.439 33.2344ZM132.967 33.2051C132.075 33.2051 131.29 32.9805 130.613 32.5312C129.943 32.0755 129.422 31.444 129.051 30.6367C128.68 29.8294 128.494 28.8887 128.494 27.8145C128.494 26.7402 128.68 25.7995 129.051 24.9922C129.428 24.1784 129.952 23.5469 130.623 23.0977C131.3 22.6484 132.081 22.4238 132.967 22.4238C133.442 22.4238 133.878 22.4922 134.275 22.6289C134.673 22.7656 135.027 22.9609 135.34 23.2148C135.652 23.4688 135.913 23.778 136.121 24.1426H136.15V18.4492H138.23V33H136.189V31.418H136.16C135.939 31.7956 135.669 32.1178 135.35 32.3848C135.031 32.6517 134.673 32.8568 134.275 33C133.878 33.1367 133.442 33.2051 132.967 33.2051ZM133.396 31.418C133.982 31.418 134.49 31.2682 134.92 30.9688C135.356 30.6693 135.691 30.2493 135.926 29.709C136.16 29.1686 136.277 28.5339 136.277 27.8047C136.277 27.0755 136.16 26.4408 135.926 25.9004C135.691 25.36 135.356 24.9434 134.92 24.6504C134.49 24.3509 133.982 24.2012 133.396 24.2012C132.837 24.2012 132.345 24.3411 131.922 24.6211C131.499 24.901 131.17 25.3112 130.936 25.8516C130.708 26.3854 130.594 27.0365 130.594 27.8047C130.594 28.5729 130.711 29.2272 130.945 29.7676C131.18 30.3079 131.505 30.7181 131.922 30.998C132.345 31.278 132.837 31.418 133.396 31.418ZM140.613 33V22.6191H142.684V33H140.613ZM141.648 20.8613C141.277 20.8613 140.965 20.7376 140.711 20.4902C140.464 20.2428 140.34 19.9434 140.34 19.5918C140.34 19.2337 140.464 18.9342 140.711 18.6934C140.965 18.446 141.274 18.3223 141.639 18.3223C142.01 18.3223 142.322 18.446 142.576 18.6934C142.83 18.9342 142.957 19.2337 142.957 19.5918C142.957 19.9434 142.83 20.2428 142.576 20.4902C142.322 20.7376 142.013 20.8613 141.648 20.8613ZM149.5 33.2344C148.517 33.2344 147.654 33.0065 146.912 32.5508C146.17 32.0885 145.594 31.4538 145.184 30.6465C144.773 29.8327 144.568 28.8952 144.568 27.834C144.568 26.7663 144.773 25.8255 145.184 25.0117C145.594 24.1914 146.17 23.5501 146.912 23.0879C147.654 22.6257 148.517 22.3945 149.5 22.3945C150.112 22.3945 150.675 22.4857 151.189 22.668C151.71 22.8503 152.169 23.1074 152.566 23.4395C152.964 23.765 153.286 24.1556 153.533 24.6113C153.787 25.0605 153.95 25.5553 154.021 26.0957L151.971 26.1543C151.919 25.8613 151.824 25.5944 151.688 25.3535C151.557 25.1126 151.388 24.9076 151.18 24.7383C150.971 24.5625 150.727 24.4258 150.447 24.3281C150.174 24.2305 149.861 24.1816 149.51 24.1816C148.911 24.1816 148.396 24.3346 147.967 24.6406C147.544 24.9401 147.218 25.3633 146.99 25.9102C146.769 26.457 146.658 27.0983 146.658 27.834C146.658 28.5566 146.769 29.1914 146.99 29.7383C147.218 30.2786 147.544 30.6986 147.967 30.998C148.396 31.2975 148.911 31.4473 149.51 31.4473C149.861 31.4473 150.174 31.4017 150.447 31.3105C150.721 31.2194 150.955 31.0859 151.15 30.9102C151.352 30.7344 151.518 30.526 151.648 30.2852C151.785 30.0378 151.886 29.7643 151.951 29.4648L154.021 29.5234C153.956 30.0573 153.8 30.5488 153.553 30.998C153.305 31.4473 152.98 31.8411 152.576 32.1797C152.179 32.5117 151.72 32.7721 151.199 32.9609C150.678 33.1432 150.112 33.2344 149.5 33.2344ZM155.848 33V22.6191H157.918V33H155.848ZM156.883 20.8613C156.512 20.8613 156.199 20.7376 155.945 20.4902C155.698 20.2428 155.574 19.9434 155.574 19.5918C155.574 19.2337 155.698 18.9342 155.945 18.6934C156.199 18.446 156.508 18.3223 156.873 18.3223C157.244 18.3223 157.557 18.446 157.811 18.6934C158.064 18.9342 158.191 19.2337 158.191 19.5918C158.191 19.9434 158.064 20.2428 157.811 20.4902C157.557 20.7376 157.247 20.8613 156.883 20.8613ZM162.371 27.0039V33H160.301V22.6191H162.332V25.1973H161.883C162.215 24.2663 162.68 23.5729 163.279 23.1172C163.885 22.6549 164.617 22.4238 165.477 22.4238C166.186 22.4238 166.821 22.5801 167.381 22.8926C167.947 23.1986 168.393 23.6543 168.719 24.2598C169.044 24.8652 169.207 25.6172 169.207 26.5156V33H167.127V26.7793C167.127 25.9525 166.928 25.3275 166.531 24.9043C166.141 24.4811 165.584 24.2695 164.861 24.2695C164.399 24.2695 163.979 24.3672 163.602 24.5625C163.224 24.7513 162.924 25.0475 162.703 25.4512C162.482 25.8548 162.371 26.3724 162.371 27.0039ZM176.033 33.2344C175.005 33.2344 174.119 33.0033 173.377 32.541C172.641 32.0788 172.075 31.4408 171.678 30.627C171.287 29.8132 171.092 28.8822 171.092 27.834C171.092 26.7728 171.294 25.8353 171.697 25.0215C172.107 24.2012 172.674 23.5599 173.396 23.0977C174.126 22.6289 174.965 22.3945 175.916 22.3945C176.632 22.3945 177.283 22.5215 177.869 22.7754C178.462 23.0293 178.969 23.3939 179.393 23.8691C179.822 24.3444 180.151 24.9141 180.379 25.5781C180.613 26.2422 180.73 26.9811 180.73 27.7949V28.3809H172.049V26.8184H179.646L178.729 27.2969C178.729 26.6523 178.615 26.0924 178.387 25.6172C178.159 25.1419 177.837 24.7741 177.42 24.5137C177.003 24.2533 176.505 24.123 175.926 24.123C175.359 24.123 174.865 24.2533 174.441 24.5137C174.025 24.7741 173.702 25.1419 173.475 25.6172C173.247 26.0859 173.133 26.6361 173.133 27.2676V28.1855C173.133 28.8431 173.247 29.4225 173.475 29.9238C173.702 30.4251 174.035 30.8158 174.471 31.0957C174.913 31.3691 175.444 31.5059 176.062 31.5059C176.505 31.5059 176.896 31.4375 177.234 31.3008C177.579 31.1641 177.866 30.9753 178.094 30.7344C178.328 30.487 178.494 30.1973 178.592 29.8652L180.584 29.9238C180.447 30.5749 180.167 31.151 179.744 31.6523C179.321 32.1471 178.79 32.5345 178.152 32.8145C177.514 33.0944 176.808 33.2344 176.033 33.2344Z" fill="black"/>
<defs>
<clipPath id="clip0_802_180">
<rect width="24" height="24" fill="white" transform="translate(16 14)"/>
</clipPath>
</defs>
</svg>
