<svg width="361" height="235" viewBox="0 0 361 235" fill="none" xmlns="http://www.w3.org/2000/svg">
<rect width="361" height="235" rx="16" fill="white"/>
<path d="M20.8057 34.5V27.2246H22.0898L24.8291 31.5557C24.9202 31.6989 25.0228 31.8698 25.1367 32.0684C25.2507 32.2669 25.3711 32.4915 25.498 32.7422C25.625 32.9896 25.7503 33.2598 25.874 33.5527H25.7373C25.708 33.276 25.6852 33.0026 25.6689 32.7324C25.6559 32.459 25.6462 32.2035 25.6396 31.9658C25.6331 31.7282 25.6299 31.528 25.6299 31.3652V27.2246H26.7578V34.5H25.4688L23.0127 30.6279C22.8825 30.4163 22.7539 30.2031 22.627 29.9883C22.5033 29.7734 22.3649 29.526 22.2119 29.2461C22.0622 28.9629 21.8783 28.6195 21.6602 28.2158H21.8359C21.8522 28.5739 21.8685 28.9092 21.8848 29.2217C21.901 29.5309 21.9124 29.806 21.9189 30.0469C21.9287 30.2845 21.9336 30.4749 21.9336 30.6182V34.5H20.8057ZM30.5859 34.6123C30.0749 34.6123 29.6273 34.4951 29.2432 34.2607C28.8623 34.0264 28.5661 33.6976 28.3545 33.2744C28.1429 32.8512 28.0371 32.3597 28.0371 31.7998C28.0371 31.2334 28.1429 30.7386 28.3545 30.3154C28.5661 29.889 28.8623 29.5586 29.2432 29.3242C29.6273 29.0898 30.0749 28.9727 30.5859 28.9727C31.1003 28.9727 31.5479 29.0898 31.9287 29.3242C32.3128 29.5586 32.6107 29.889 32.8223 30.3154C33.0339 30.7386 33.1396 31.2334 33.1396 31.7998C33.1396 32.3597 33.0339 32.8512 32.8223 33.2744C32.6107 33.6976 32.3128 34.0264 31.9287 34.2607C31.5479 34.4951 31.1003 34.6123 30.5859 34.6123ZM30.5859 33.7041C30.918 33.7041 31.1914 33.6178 31.4062 33.4453C31.6243 33.2695 31.7855 33.0384 31.8896 32.752C31.9971 32.4622 32.0508 32.1449 32.0508 31.7998C32.0508 31.4515 31.9971 31.1325 31.8896 30.8428C31.7855 30.5498 31.6243 30.3171 31.4062 30.1445C31.1914 29.9688 30.918 29.8809 30.5859 29.8809C30.2572 29.8809 29.9854 29.9688 29.7705 30.1445C29.5557 30.3171 29.3945 30.5482 29.2871 30.8379C29.1829 31.1276 29.1309 31.4482 29.1309 31.7998C29.1309 32.1449 29.1829 32.4622 29.2871 32.752C29.3945 33.0384 29.5557 33.2695 29.7705 33.4453C29.9854 33.6178 30.2572 33.7041 30.5859 33.7041ZM36.6699 29.041V29.915H33.7109V29.041H36.6699ZM34.5068 27.7422H35.5811V33.0254C35.5811 33.2435 35.6266 33.4046 35.7178 33.5088C35.8122 33.6097 35.9652 33.6602 36.1768 33.6602C36.2321 33.6602 36.3053 33.6536 36.3965 33.6406C36.4876 33.6276 36.5658 33.6146 36.6309 33.6016L36.8213 34.4609C36.7074 34.5 36.5853 34.5277 36.4551 34.5439C36.3249 34.5635 36.1963 34.5732 36.0693 34.5732C35.5745 34.5732 35.1904 34.4463 34.917 34.1924C34.6436 33.9352 34.5068 33.5755 34.5068 33.1133V27.7422ZM40 34.6123C39.4629 34.6123 38.999 34.4967 38.6084 34.2656C38.2178 34.0345 37.9167 33.709 37.7051 33.2891C37.4967 32.8691 37.3926 32.376 37.3926 31.8096C37.3926 31.2497 37.4951 30.7565 37.7002 30.3301C37.9085 29.9036 38.2015 29.5716 38.5791 29.334C38.9567 29.0931 39.3994 28.9727 39.9072 28.9727C40.2197 28.9727 40.5208 29.0247 40.8105 29.1289C41.1003 29.2298 41.3607 29.3893 41.5918 29.6074C41.8229 29.8255 42.0052 30.1087 42.1387 30.457C42.2754 30.8021 42.3438 31.222 42.3438 31.7168V32.0977H37.9932V31.2969H41.792L41.2891 31.5605C41.2891 31.2253 41.237 30.9307 41.1328 30.6768C41.0286 30.4196 40.874 30.2194 40.6689 30.0762C40.4671 29.9329 40.2132 29.8613 39.9072 29.8613C39.6045 29.8613 39.3457 29.9346 39.1309 30.0811C38.916 30.2275 38.7516 30.4212 38.6377 30.6621C38.527 30.8997 38.4717 31.1602 38.4717 31.4434V31.9902C38.4717 32.3646 38.5352 32.682 38.6621 32.9424C38.7923 33.1995 38.973 33.3949 39.2041 33.5283C39.4352 33.6585 39.7038 33.7236 40.0098 33.7236C40.2116 33.7236 40.3939 33.696 40.5566 33.6406C40.7194 33.582 40.8594 33.4958 40.9766 33.3818C41.097 33.2646 41.1882 33.1214 41.25 32.9521L42.2607 33.1914C42.1729 33.4714 42.0247 33.7188 41.8164 33.9336C41.6113 34.1484 41.3542 34.3161 41.0449 34.4365C40.7389 34.5537 40.3906 34.6123 40 34.6123Z" fill="black" fill-opacity="0.5"/>
<rect x="244" y="20" width="73" height="21" rx="6" fill="#F7F7F7"/>
<path d="M251.07 34L253.427 27.5081H254.595L256.934 34H255.884L254.634 30.3401C254.532 30.0293 254.422 29.6895 254.303 29.3206C254.183 28.9517 254.041 28.4942 253.876 27.9482H254.15C253.985 28.4942 253.842 28.9517 253.723 29.3206C253.604 29.6895 253.492 30.0293 253.388 30.3401L252.098 34H251.07ZM252.377 32.3139V31.4904H255.631V32.3139H252.377ZM259.378 34.1089C259.027 34.1089 258.71 34.0523 258.428 33.939C258.147 33.8257 257.92 33.6573 257.749 33.4336C257.577 33.2099 257.48 32.9325 257.457 32.6014H258.363C258.389 32.8483 258.487 33.04 258.655 33.1765C258.826 33.3101 259.062 33.377 259.361 33.377C259.654 33.377 259.885 33.3174 260.054 33.1983C260.222 33.0792 260.306 32.9282 260.306 32.7452C260.306 32.5883 260.245 32.4634 260.123 32.3705C260.004 32.2746 259.844 32.2049 259.644 32.1614L258.882 31.9914C258.449 31.8956 258.121 31.7373 257.897 31.5165C257.673 31.2958 257.561 31.0155 257.561 30.6756C257.561 30.4026 257.634 30.163 257.779 29.9567C257.927 29.7505 258.134 29.5893 258.398 29.4731C258.662 29.3569 258.97 29.2988 259.322 29.2988C259.667 29.2988 259.974 29.3598 260.241 29.4818C260.511 29.6038 260.723 29.7766 260.877 30.0003C261.034 30.224 261.117 30.4912 261.125 30.802H260.245C260.242 30.5783 260.158 30.3939 259.993 30.2486C259.827 30.1005 259.608 30.0264 259.335 30.0264C259.073 30.0264 258.866 30.0874 258.712 30.2094C258.558 30.3314 258.481 30.481 258.481 30.6582C258.481 30.8151 258.539 30.9414 258.655 31.0373C258.774 31.1331 258.937 31.2043 259.143 31.2508L259.927 31.425C260.377 31.5238 260.707 31.6763 260.916 31.8825C261.128 32.0887 261.234 32.3589 261.234 32.6929C261.234 32.9863 261.153 33.239 260.99 33.451C260.831 33.6602 260.611 33.8228 260.332 33.939C260.054 34.0523 259.736 34.1089 259.378 34.1089ZM263.931 34.1089C263.58 34.1089 263.263 34.0523 262.981 33.939C262.7 33.8257 262.473 33.6573 262.302 33.4336C262.13 33.2099 262.033 32.9325 262.01 32.6014H262.916C262.942 32.8483 263.039 33.04 263.208 33.1765C263.379 33.3101 263.615 33.377 263.914 33.377C264.207 33.377 264.438 33.3174 264.606 33.1983C264.775 33.0792 264.859 32.9282 264.859 32.7452C264.859 32.5883 264.798 32.4634 264.676 32.3705C264.557 32.2746 264.397 32.2049 264.197 32.1614L263.434 31.9914C263.002 31.8956 262.673 31.7373 262.45 31.5165C262.226 31.2958 262.114 31.0155 262.114 30.6756C262.114 30.4026 262.187 30.163 262.332 29.9567C262.48 29.7505 262.687 29.5893 262.951 29.4731C263.215 29.3569 263.523 29.2988 263.875 29.2988C264.22 29.2988 264.527 29.3598 264.794 29.4818C265.064 29.6038 265.276 29.7766 265.43 30.0003C265.587 30.224 265.67 30.4912 265.678 30.802H264.798C264.795 30.5783 264.711 30.3939 264.545 30.2486C264.38 30.1005 264.161 30.0264 263.888 30.0264C263.626 30.0264 263.418 30.0874 263.265 30.2094C263.111 30.3314 263.034 30.481 263.034 30.6582C263.034 30.8151 263.092 30.9414 263.208 31.0373C263.327 31.1331 263.49 31.2043 263.696 31.2508L264.48 31.425C264.93 31.5238 265.26 31.6763 265.469 31.8825C265.681 32.0887 265.787 32.3589 265.787 32.6929C265.787 32.9863 265.706 33.239 265.543 33.451C265.383 33.6602 265.164 33.8228 264.885 33.939C264.606 34.0523 264.288 34.1089 263.931 34.1089ZM266.78 34V29.399H267.7V34H266.78ZM267.238 28.6061C267.075 28.6061 266.937 28.5523 266.824 28.4449C266.714 28.3345 266.658 28.2009 266.658 28.044C266.658 27.8843 266.714 27.7507 266.824 27.6432C266.937 27.5328 267.075 27.4776 267.238 27.4776C267.401 27.4776 267.539 27.5328 267.652 27.6432C267.765 27.7507 267.822 27.8843 267.822 28.044C267.822 28.2009 267.765 28.3345 267.652 28.4449C267.539 28.5523 267.401 28.6061 267.238 28.6061ZM270.928 35.8822C270.55 35.8822 270.218 35.8256 269.93 35.7123C269.646 35.6019 269.416 35.4393 269.242 35.2243C269.068 35.0123 268.96 34.7567 268.92 34.4575H269.839C269.88 34.6056 269.949 34.7291 270.048 34.8278C270.15 34.9295 270.275 35.005 270.423 35.0544C270.574 35.1067 270.742 35.1328 270.928 35.1328C271.3 35.1328 271.59 35.0326 271.799 34.8322C272.009 34.6318 272.113 34.3457 272.113 33.9739V33.2767H272.109C272.004 33.4539 271.879 33.6006 271.734 33.7168C271.592 33.833 271.432 33.9201 271.255 33.9782C271.081 34.0334 270.892 34.061 270.688 34.061C270.291 34.061 269.941 33.9608 269.638 33.7604C269.339 33.557 269.107 33.2782 268.941 32.9238C268.776 32.5666 268.693 32.1541 268.693 31.6864C268.693 31.2188 268.776 30.8063 268.941 30.4491C269.11 30.0889 269.344 29.8086 269.643 29.6082C269.942 29.4078 270.289 29.3075 270.684 29.3075C270.885 29.3075 271.073 29.3351 271.251 29.3903C271.431 29.4455 271.593 29.5327 271.738 29.6517C271.887 29.7679 272.012 29.9175 272.113 30.1005H272.118V29.399H273.024V33.939C273.024 34.4037 272.929 34.7784 272.741 35.0631C272.555 35.3478 272.302 35.5554 271.982 35.6861C271.666 35.8169 271.314 35.8822 270.928 35.8822ZM270.876 33.2724C271.137 33.2724 271.364 33.207 271.555 33.0763C271.75 32.9456 271.9 32.7612 272.004 32.523C272.112 32.2819 272.165 32.0016 272.165 31.6821C272.165 31.3597 272.112 31.0794 272.004 30.8412C271.9 30.603 271.75 30.4186 271.555 30.2879C271.364 30.1572 271.137 30.0918 270.876 30.0918C270.629 30.0918 270.411 30.1528 270.222 30.2748C270.036 30.3939 269.89 30.5725 269.782 30.8107C269.678 31.046 269.625 31.3364 269.625 31.6821C269.625 32.0248 269.678 32.3153 269.782 32.5535C269.89 32.7888 270.036 32.9674 270.222 33.0894C270.411 33.2114 270.629 33.2724 270.876 33.2724ZM275.159 31.351V34H274.239V29.399H275.141V30.5406H274.928C275.079 30.1281 275.288 29.8202 275.555 29.6169C275.825 29.4107 276.15 29.3075 276.531 29.3075C276.848 29.3075 277.131 29.3773 277.381 29.5167C277.633 29.6532 277.832 29.8565 277.977 30.1267C278.123 30.3968 278.195 30.7323 278.195 31.1331V34H277.276V31.2464C277.276 30.8775 277.187 30.6001 277.01 30.4142C276.836 30.2254 276.589 30.131 276.27 30.131C276.06 30.131 275.872 30.1731 275.703 30.2574C275.538 30.3416 275.405 30.4738 275.307 30.6538C275.208 30.8339 275.159 31.0663 275.159 31.351ZM281.715 35.8212V29.399H282.617V30.0613H282.63C282.726 29.8928 282.847 29.7534 282.992 29.643C283.14 29.5327 283.304 29.4499 283.484 29.3947C283.667 29.3366 283.858 29.3075 284.055 29.3075C284.453 29.3075 284.8 29.4092 285.096 29.6125C285.396 29.813 285.628 30.0932 285.794 30.4534C285.962 30.8107 286.046 31.2261 286.046 31.6995C286.046 32.173 285.963 32.5898 285.798 32.95C285.632 33.3072 285.4 33.5875 285.101 33.7909C284.802 33.9913 284.452 34.0915 284.051 34.0915C283.853 34.0915 283.666 34.0624 283.489 34.0044C283.314 33.9463 283.156 33.8591 283.014 33.7429C282.871 33.6268 282.749 33.4815 282.648 33.3072H282.635V35.8212H281.715ZM283.863 33.2985C284.113 33.2985 284.331 33.2375 284.517 33.1155C284.703 32.9906 284.848 32.8105 284.953 32.5753C285.06 32.3371 285.114 32.0452 285.114 31.6995C285.114 31.351 285.06 31.0576 284.953 30.8194C284.848 30.5812 284.703 30.4011 284.517 30.2791C284.331 30.1572 284.113 30.0962 283.863 30.0962C283.602 30.0962 283.374 30.163 283.179 30.2966C282.988 30.4273 282.838 30.6132 282.731 30.8543C282.626 31.0924 282.574 31.3742 282.574 31.6995C282.574 32.019 282.626 32.2993 282.731 32.5404C282.838 32.7815 282.988 32.9689 283.179 33.1025C283.374 33.2332 283.602 33.2985 283.863 33.2985ZM288.49 34.0741C288.185 34.0741 287.912 34.0218 287.671 33.9172C287.433 33.8127 287.244 33.6573 287.105 33.451C286.965 33.2448 286.896 32.9892 286.896 32.6842C286.896 32.4228 286.945 32.2078 287.044 32.0394C287.145 31.8709 287.282 31.7373 287.453 31.6385C287.625 31.5398 287.819 31.4657 288.037 31.4163C288.255 31.364 288.48 31.3248 288.713 31.2987C289.003 31.2609 289.231 31.2319 289.397 31.2115C289.565 31.1883 289.684 31.1534 289.754 31.107C289.826 31.0576 289.863 30.9777 289.863 30.8673V30.8281C289.863 30.68 289.826 30.5493 289.754 30.436C289.681 30.3198 289.575 30.2283 289.436 30.1615C289.296 30.0947 289.129 30.0613 288.935 30.0613C288.74 30.0613 288.567 30.0932 288.416 30.1572C288.268 30.2211 288.149 30.3096 288.059 30.4229C287.972 30.5333 287.922 30.6597 287.911 30.802H287.009C287.023 30.5086 287.112 30.2501 287.275 30.0264C287.437 29.8028 287.661 29.6271 287.946 29.4992C288.23 29.3714 288.564 29.3075 288.948 29.3075C289.23 29.3075 289.484 29.3438 289.71 29.4165C289.937 29.4891 290.129 29.5936 290.285 29.7302C290.445 29.8638 290.566 30.025 290.647 30.2138C290.731 30.4026 290.773 30.6132 290.773 30.8456V34H289.867V33.3465H289.85C289.786 33.4714 289.699 33.589 289.588 33.6994C289.478 33.8097 289.333 33.8998 289.153 33.9695C288.975 34.0392 288.755 34.0741 288.49 34.0741ZM288.678 33.3334C288.948 33.3334 289.17 33.2855 289.344 33.1896C289.521 33.0908 289.652 32.9616 289.736 32.8018C289.824 32.6421 289.867 32.4678 289.867 32.279V31.7387C289.835 31.7649 289.783 31.7896 289.71 31.8128C289.641 31.8331 289.555 31.8535 289.453 31.8738C289.352 31.8912 289.241 31.9101 289.122 31.9304C289.003 31.9508 288.884 31.9682 288.765 31.9827C288.596 32.006 288.44 32.0452 288.294 32.1004C288.149 32.1526 288.031 32.2267 287.941 32.3226C287.854 32.4184 287.811 32.5448 287.811 32.7016C287.811 32.8323 287.846 32.9456 287.915 33.0415C287.985 33.1344 288.085 33.207 288.216 33.2593C288.347 33.3087 288.501 33.3334 288.678 33.3334ZM294.207 29.399V30.1572H291.54V29.399H294.207ZM292.35 28.1442H293.27V32.7844C293.27 32.9529 293.305 33.072 293.374 33.1417C293.447 33.2085 293.575 33.2419 293.758 33.2419C293.827 33.2419 293.904 33.2419 293.989 33.2419C294.073 33.2419 294.146 33.2419 294.207 33.2419V34C294.131 34 294.04 34 293.932 34C293.827 34 293.726 34 293.627 34C293.194 34 292.873 33.91 292.664 33.7299C292.455 33.5469 292.35 33.2709 292.35 32.902V28.1442ZM295.113 34V29.399H296.032V34H295.113ZM295.57 28.6061C295.407 28.6061 295.269 28.5523 295.156 28.4449C295.046 28.3345 294.991 28.2009 294.991 28.044C294.991 27.8843 295.046 27.7507 295.156 27.6432C295.269 27.5328 295.407 27.4776 295.57 27.4776C295.733 27.4776 295.871 27.5328 295.984 27.6432C296.097 27.7507 296.154 27.8843 296.154 28.044C296.154 28.2009 296.097 28.3345 295.984 28.4449C295.871 28.5523 295.733 28.6061 295.57 28.6061ZM299.217 34.1046C298.761 34.1046 298.369 34.0015 298.04 33.7952C297.715 33.589 297.464 33.3058 297.287 32.9456C297.112 32.5825 297.025 32.1701 297.025 31.7082C297.025 31.2377 297.117 30.8223 297.3 30.4621C297.483 30.0991 297.735 29.8144 298.058 29.6082C298.38 29.399 298.75 29.2945 299.169 29.2945C299.494 29.2945 299.787 29.3526 300.049 29.4687C300.313 29.5849 300.54 29.7505 300.729 29.9654C300.917 30.1775 301.063 30.4302 301.164 30.7236C301.266 31.0169 301.317 31.3422 301.317 31.6995V31.9479H297.439V31.2508H300.833L300.428 31.4642C300.428 31.1796 300.377 30.9327 300.275 30.7236C300.174 30.5115 300.029 30.3489 299.84 30.2356C299.654 30.1194 299.433 30.0613 299.177 30.0613C298.925 30.0613 298.705 30.1194 298.52 30.2356C298.334 30.3489 298.188 30.5115 298.084 30.7236C297.982 30.9327 297.931 31.1796 297.931 31.4642V31.8607C297.931 32.1512 297.982 32.4083 298.084 32.6319C298.186 32.8527 298.332 33.0255 298.524 33.1504C298.719 33.2753 298.954 33.3377 299.23 33.3377C299.43 33.3377 299.607 33.3072 299.761 33.2462C299.915 33.1823 300.043 33.0952 300.145 32.9848C300.246 32.8744 300.319 32.7466 300.363 32.6014H301.247C301.192 32.8977 301.068 33.1591 300.877 33.3857C300.688 33.6093 300.45 33.7851 300.162 33.9129C299.877 34.0407 299.562 34.1046 299.217 34.1046ZM303.212 31.351V34H302.293V29.399H303.194V30.5406H302.981C303.132 30.1281 303.341 29.8202 303.608 29.6169C303.878 29.4107 304.204 29.3075 304.584 29.3075C304.901 29.3075 305.184 29.3773 305.434 29.5167C305.687 29.6532 305.886 29.8565 306.031 30.1267C306.176 30.3968 306.249 30.7323 306.249 31.1331V34H305.329V31.2464C305.329 30.8775 305.241 30.6001 305.064 30.4142C304.889 30.2254 304.642 30.131 304.323 30.131C304.114 30.131 303.925 30.1731 303.756 30.2574C303.591 30.3416 303.459 30.4738 303.36 30.6538C303.261 30.8339 303.212 31.0663 303.212 31.351ZM309.682 29.399V30.1572H307.015V29.399H309.682ZM307.826 28.1442H308.745V32.7844C308.745 32.9529 308.78 33.072 308.85 33.1417C308.922 33.2085 309.05 33.2419 309.233 33.2419C309.303 33.2419 309.38 33.2419 309.464 33.2419C309.548 33.2419 309.621 33.2419 309.682 33.2419V34C309.606 34 309.515 34 309.407 34C309.303 34 309.201 34 309.102 34C308.67 34 308.349 33.91 308.139 33.7299C307.93 33.5469 307.826 33.2709 307.826 32.902V28.1442Z" fill="black"/>
<path d="M334.153 24.3818C334.491 24.4129 334.814 24.5489 335.08 24.7871L335.081 24.7861C335.086 24.7908 335.091 24.797 335.097 24.8018C335.105 24.8091 335.114 24.8158 335.122 24.8232L335.12 24.8252C335.379 25.067 335.535 25.3641 335.604 25.6709L335.63 25.8096L335.631 25.8193C335.716 26.4474 335.805 26.9543 335.897 27.3477C335.986 27.7161 336.087 27.9565 336.174 28.1035L336.231 28.1885C336.291 28.2654 336.359 28.3247 336.438 28.373C336.542 28.4352 336.694 28.5028 336.909 28.5645L337.147 28.625L337.154 28.626C337.536 28.7116 338.027 28.7904 338.635 28.8594L338.637 28.8604C339.008 28.903 339.365 29.0629 339.647 29.3486H339.648C339.654 29.3547 339.661 29.3611 339.667 29.3672H339.666C339.963 29.6739 340.125 30.0736 340.125 30.5C340.125 30.9264 339.963 31.3245 339.666 31.6309C339.662 31.635 339.658 31.6395 339.654 31.6436C339.652 31.6457 339.651 31.6483 339.648 31.6504L339.647 31.6494C339.38 31.9207 339.043 32.0853 338.68 32.1387C338.666 32.1406 338.653 32.143 338.64 32.1445C338.029 32.2135 337.537 32.2903 337.157 32.373C336.81 32.4517 336.586 32.5466 336.45 32.6289C336.34 32.6957 336.253 32.7815 336.181 32.9004C336.09 33.0518 335.99 33.2921 335.902 33.6533C335.81 34.0529 335.718 34.5629 335.63 35.1904C335.628 35.2026 335.626 35.2154 335.624 35.2275C335.564 35.5787 335.397 35.9273 335.095 36.2002L335.096 36.2012C335.093 36.2038 335.089 36.2054 335.086 36.208C335.083 36.2109 335.08 36.2149 335.077 36.2178L335.076 36.2168C334.772 36.4865 334.393 36.6249 334 36.625C333.607 36.6249 333.226 36.4869 332.922 36.2168V36.2178C332.919 36.215 332.915 36.2118 332.912 36.209C332.909 36.2065 332.906 36.2037 332.903 36.2012V36.2002C332.602 35.9275 332.435 35.5783 332.375 35.2275C332.373 35.2155 332.371 35.2025 332.369 35.1904C332.281 34.5579 332.188 34.0446 332.095 33.6436V33.6426C332.007 33.2836 331.905 33.0451 331.815 32.8955V32.8945C331.744 32.7786 331.657 32.6946 331.549 32.6289C331.413 32.5465 331.188 32.4517 330.841 32.373C330.461 32.2904 329.969 32.2134 329.359 32.1445C329.346 32.143 329.333 32.1406 329.319 32.1387C328.957 32.0852 328.619 31.9206 328.352 31.6494L328.351 31.6504C328.347 31.6465 328.344 31.6415 328.34 31.6377C328.338 31.6357 328.335 31.6339 328.333 31.6318L328.334 31.6309C328.075 31.3634 327.918 31.0263 327.883 30.6611L327.875 30.5L327.883 30.3379C327.918 29.9727 328.074 29.6348 328.334 29.3672H328.333C328.337 29.3627 328.342 29.3589 328.347 29.3545C328.348 29.3527 328.35 29.3504 328.352 29.3486H328.353C328.635 29.0631 328.991 28.9031 329.362 28.8604L329.364 28.8594C329.972 28.7904 330.463 28.7116 330.845 28.626L330.852 28.624C331.196 28.5488 331.421 28.4559 331.561 28.373C331.667 28.3082 331.753 28.2243 331.825 28.1035C331.912 27.9566 332.013 27.7165 332.102 27.3477C332.194 26.9543 332.283 26.4475 332.368 25.8193L332.369 25.8096C332.42 25.4555 332.581 25.1032 332.878 24.8252L332.877 24.8232C332.885 24.8153 332.895 24.8085 332.903 24.8008C332.908 24.7962 332.913 24.7906 332.918 24.7861V24.7871C333.224 24.5125 333.607 24.3751 334 24.375L334.153 24.3818ZM334 25.5996C333.892 25.5997 333.8 25.636 333.725 25.708C333.646 25.7767 333.598 25.869 333.582 25.9834L333.515 26.4551C333.445 26.907 333.371 27.3007 333.293 27.6348C333.185 28.0834 333.045 28.4504 332.875 28.7354C332.702 29.0236 332.474 29.2525 332.192 29.4229C331.908 29.5932 331.548 29.7263 331.112 29.8213C330.674 29.9196 330.137 30.0051 329.502 30.0771C329.388 30.0904 329.293 30.1364 329.218 30.2148L329.166 30.2764C329.122 30.3414 329.1 30.4165 329.1 30.5C329.1 30.6111 329.14 30.7067 329.218 30.7852C329.293 30.8634 329.386 30.9103 329.497 30.9268C330.135 30.9988 330.672 31.0828 331.107 31.1777C331.542 31.2759 331.901 31.4109 332.183 31.5811C332.464 31.7513 332.692 31.979 332.865 32.2637C333.039 32.5519 333.18 32.9198 333.288 33.3652C333.393 33.8139 333.49 34.3666 333.582 35.0215C333.602 35.1358 333.651 35.2282 333.729 35.2969C333.786 35.3483 333.851 35.3806 333.924 35.3936L334 35.3994C334.104 35.3993 334.194 35.3654 334.27 35.2969C334.348 35.2281 334.397 35.136 334.417 35.0215C334.509 34.3664 334.607 33.814 334.712 33.3652C334.82 32.9198 334.96 32.5519 335.134 32.2637C335.264 32.0501 335.425 31.8689 335.615 31.7197L335.816 31.5811C336.098 31.4107 336.456 31.276 336.892 31.1777C337.218 31.1065 337.602 31.0417 338.042 30.9834L338.502 30.9268C338.613 30.9104 338.707 30.8637 338.782 30.7852C338.841 30.7261 338.878 30.6575 338.893 30.5801L338.899 30.5C338.899 30.4165 338.877 30.3415 338.833 30.2764L338.782 30.2148C338.707 30.1365 338.611 30.0903 338.497 30.0771C338.021 30.0231 337.6 29.9613 337.234 29.8926L336.887 29.8213C336.56 29.7501 336.276 29.6575 336.034 29.5439L335.807 29.4229C335.525 29.2525 335.297 29.0235 335.124 28.7354C334.954 28.4505 334.815 28.0831 334.707 27.6348C334.629 27.3007 334.554 26.9069 334.484 26.4551L334.417 25.9834C334.401 25.8689 334.353 25.7767 334.274 25.708C334.199 25.6362 334.108 25.5997 334 25.5996Z" fill="url(#paint0_radial_898_752)"/>
<path d="M341 51H20" stroke="#F5F5F5"/>
<path d="M21.0898 81V67.9043H24.4297L26.9785 74.7861C27.0664 75.0381 27.166 75.3428 27.2773 75.7002C27.3945 76.0576 27.5146 76.4326 27.6377 76.8252C27.7607 77.2178 27.875 77.5898 27.9805 77.9414C28.0918 78.293 28.1797 78.5859 28.2441 78.8203H27.6729C27.7373 78.5859 27.8223 78.293 27.9277 77.9414C28.0332 77.5898 28.1475 77.2178 28.2705 76.8252C28.3936 76.4326 28.5107 76.0576 28.6221 75.7002C28.7393 75.3428 28.8389 75.0381 28.9209 74.7861L31.4258 67.9043H34.7832V81H32.498V74.3203C32.498 74.0332 32.501 73.7021 32.5068 73.3271C32.5127 72.9463 32.5215 72.5479 32.5332 72.1318C32.5508 71.71 32.5625 71.2852 32.5684 70.8574C32.5801 70.4238 32.5889 70.0107 32.5947 69.6182H32.8848C32.7441 70.0635 32.6035 70.5146 32.4629 70.9717C32.3223 71.4229 32.1846 71.8594 32.0498 72.2812C31.915 72.6973 31.7891 73.0811 31.6719 73.4326C31.5605 73.7783 31.4639 74.0742 31.3818 74.3203L28.8857 81H26.9873L24.4736 74.3203C24.3916 74.0742 24.2891 73.7783 24.166 73.4326C24.0488 73.0811 23.9229 72.6973 23.7881 72.2812C23.6533 71.8594 23.5127 71.4229 23.3662 70.9717C23.2197 70.5146 23.0732 70.0635 22.9268 69.6182H23.2783C23.29 70.0107 23.2988 70.4238 23.3047 70.8574C23.3164 71.2852 23.3281 71.71 23.3398 72.1318C23.3516 72.5479 23.3604 72.9463 23.3662 73.3271C23.3721 73.7021 23.375 74.0332 23.375 74.3203V81H21.0898ZM40.0475 81.1494C39.4323 81.1494 38.8815 81.0469 38.3952 80.8418C37.9147 80.6367 37.5338 80.3262 37.2526 79.9102C36.9772 79.4941 36.8395 78.9785 36.8395 78.3633C36.8395 77.8359 36.9391 77.4023 37.1383 77.0625C37.3375 76.7168 37.6071 76.4414 37.9469 76.2363C38.2868 76.0312 38.6764 75.876 39.1159 75.7705C39.5553 75.6592 40.0123 75.5801 40.487 75.5332C41.0612 75.4688 41.5153 75.4131 41.8493 75.3662C42.1891 75.3135 42.4323 75.2402 42.5788 75.1465C42.7252 75.0469 42.7985 74.8916 42.7985 74.6807V74.6104C42.7985 74.3408 42.7311 74.1064 42.5963 73.9072C42.4616 73.7021 42.2653 73.5439 42.0075 73.4326C41.7555 73.3154 41.4538 73.2568 41.1022 73.2568C40.7448 73.2568 40.4284 73.3154 40.153 73.4326C39.8834 73.5439 39.6696 73.7021 39.5114 73.9072C39.3532 74.1064 39.2623 74.3379 39.2389 74.6016H37.1032C37.1442 73.9863 37.3288 73.4502 37.6569 72.9932C37.9909 72.5303 38.4538 72.1729 39.0455 71.9209C39.6373 71.6631 40.3375 71.5342 41.1461 71.5342C41.7496 71.5342 42.2887 71.6074 42.7633 71.7539C43.2438 71.8945 43.6481 72.1025 43.9762 72.3779C44.3102 72.6533 44.5621 72.9844 44.7321 73.3711C44.9079 73.7578 44.9957 74.1914 44.9957 74.6719V81H42.8161V79.6904H42.7809C42.6344 79.9658 42.444 80.2148 42.2096 80.4375C41.9752 80.6543 41.6823 80.8271 41.3307 80.9561C40.9791 81.085 40.5514 81.1494 40.0475 81.1494ZM40.5924 79.5059C41.0788 79.5059 41.486 79.418 41.8141 79.2422C42.1422 79.0664 42.3883 78.832 42.5524 78.5391C42.7223 78.2461 42.8073 77.9209 42.8073 77.5635V76.5615C42.737 76.6025 42.6344 76.6436 42.4996 76.6846C42.3649 76.7256 42.2038 76.7666 42.0163 76.8076C41.8346 76.8428 41.6354 76.8779 41.4186 76.9131C41.2077 76.9482 40.9879 76.9834 40.7594 77.0186C40.443 77.0596 40.15 77.1328 39.8805 77.2383C39.6168 77.3379 39.403 77.4785 39.2389 77.6602C39.0807 77.8359 39.0016 78.0645 39.0016 78.3457C39.0016 78.5859 39.0661 78.7939 39.195 78.9697C39.3297 79.1455 39.5143 79.2803 39.7487 79.374C39.9889 79.4619 40.2702 79.5059 40.5924 79.5059ZM47.3157 81V71.7188H49.4514V73.2568H49.4778C49.6477 72.7236 49.9143 72.3193 50.2776 72.0439C50.6468 71.7686 51.1302 71.6309 51.7278 71.6309C51.8802 71.6309 52.0149 71.6338 52.1321 71.6396C52.2552 71.6455 52.3606 71.6543 52.4485 71.666V73.6348C52.3723 73.623 52.2346 73.6084 52.0354 73.5908C51.8362 73.5732 51.6253 73.5645 51.4026 73.5645C51.0569 73.5645 50.7405 73.6465 50.4534 73.8105C50.1721 73.9688 49.9466 74.209 49.7766 74.5312C49.6126 74.8535 49.5305 75.2578 49.5305 75.7441V81H47.3157ZM62.8804 81.1846C61.9839 81.1846 61.1841 81.0117 60.481 80.666C59.7779 80.3145 59.2183 79.8281 58.8023 79.207C58.3921 78.5859 58.1666 77.8682 58.1255 77.0537H60.3492C60.3843 77.4873 60.5132 77.877 60.7359 78.2227C60.9586 78.5625 61.2545 78.832 61.6236 79.0312C61.9986 79.2246 62.4205 79.3213 62.8892 79.3213C63.3814 79.3213 63.8121 79.207 64.1812 78.9785C64.5504 78.75 64.8375 78.4395 65.0425 78.0469C65.2535 77.6484 65.3589 77.1914 65.3589 76.6758C65.3589 76.1543 65.2564 75.6943 65.0513 75.2959C64.8521 74.8975 64.5738 74.5869 64.2164 74.3643C63.8589 74.1357 63.44 74.0215 62.9595 74.0215C62.3384 74.0215 61.8052 74.1504 61.3599 74.4082C60.9205 74.6602 60.6158 75.0234 60.4459 75.498H58.3013L58.7144 67.9043H66.8179V69.8291H60.7798L60.5162 73.3096H60.5337C60.897 72.9287 61.313 72.6445 61.7818 72.457C62.2564 72.2695 62.775 72.1758 63.3375 72.1758C63.9351 72.1758 64.4888 72.2871 64.9986 72.5098C65.5142 72.7324 65.9654 73.043 66.3521 73.4414C66.7388 73.8398 67.0377 74.3115 67.2486 74.8564C67.4654 75.3955 67.5738 75.9844 67.5738 76.623C67.5738 77.5137 67.3775 78.3047 66.9849 78.9961C66.5982 79.6816 66.0533 80.2178 65.3502 80.6045C64.647 80.9912 63.8238 81.1846 62.8804 81.1846ZM68.593 83.6543L69.2873 78.9697H71.4758L70.1662 83.6543H68.593ZM77.5483 81V79.2334L82.3032 75.0762C82.7485 74.6836 83.1294 74.3232 83.4458 73.9951C83.768 73.6611 84.0141 73.3242 84.1841 72.9844C84.354 72.6445 84.4389 72.2637 84.4389 71.8418C84.4389 71.3848 84.3452 70.9893 84.1577 70.6553C83.9702 70.3213 83.7036 70.0635 83.3579 69.8818C83.018 69.7002 82.6108 69.6094 82.1362 69.6094C81.6264 69.6094 81.1899 69.7178 80.8266 69.9346C80.4634 70.1514 80.1821 70.4619 79.9829 70.8662C79.7895 71.2705 79.6929 71.7539 79.6929 72.3164H77.5395C77.5395 71.3906 77.727 70.582 78.102 69.8906C78.477 69.1992 79.0102 68.6602 79.7016 68.2734C80.393 67.8867 81.2046 67.6934 82.1362 67.6934C83.0093 67.6934 83.7827 67.8633 84.4565 68.2031C85.1304 68.5371 85.6577 69.0059 86.0386 69.6094C86.4253 70.2129 86.6186 70.9219 86.6186 71.7363C86.6186 72.3281 86.5073 72.876 86.2846 73.3799C86.062 73.8779 85.7368 74.3672 85.3091 74.8477C84.8813 75.3281 84.3569 75.8408 83.7358 76.3857L80.7124 79.0664V79.084H86.6802V81H77.5483ZM93.4825 81.2109C92.4278 81.2109 91.5196 80.9355 90.7579 80.3848C89.9962 79.834 89.4073 79.0547 88.9913 78.0469C88.5812 77.0391 88.3761 75.8438 88.3761 74.4609C88.3761 73.0723 88.5812 71.874 88.9913 70.8662C89.4073 69.8525 89.9962 69.0703 90.7579 68.5195C91.5196 67.9688 92.4278 67.6934 93.4825 67.6934C94.5372 67.6934 95.4454 67.9688 96.2071 68.5195C96.9747 69.0703 97.5636 69.8525 97.9737 70.8662C98.3839 71.874 98.589 73.0723 98.589 74.4609C98.589 75.8438 98.3839 77.0391 97.9737 78.0469C97.5636 79.0547 96.9747 79.834 96.2071 80.3848C95.4454 80.9355 94.5372 81.2109 93.4825 81.2109ZM93.4825 79.2949C94.0861 79.2949 94.6046 79.1016 95.0382 78.7148C95.4718 78.3223 95.8058 77.7656 96.0402 77.0449C96.2745 76.3242 96.3917 75.4629 96.3917 74.4609C96.3917 73.4531 96.2745 72.5889 96.0402 71.8682C95.8058 71.1416 95.4718 70.585 95.0382 70.1982C94.6046 69.8057 94.0861 69.6094 93.4825 69.6094C92.8849 69.6094 92.3663 69.8057 91.9269 70.1982C91.4933 70.585 91.1593 71.1416 90.9249 71.8682C90.6905 72.5889 90.5734 73.4531 90.5734 74.4609C90.5734 75.4629 90.6905 76.3242 90.9249 77.0449C91.1593 77.7656 91.4933 78.3223 91.9269 78.7148C92.3663 79.1016 92.8849 79.2949 93.4825 79.2949ZM100.294 81V79.2334L105.049 75.0762C105.494 74.6836 105.875 74.3232 106.191 73.9951C106.513 73.6611 106.76 73.3242 106.929 72.9844C107.099 72.6445 107.184 72.2637 107.184 71.8418C107.184 71.3848 107.091 70.9893 106.903 70.6553C106.716 70.3213 106.449 70.0635 106.103 69.8818C105.763 69.7002 105.356 69.6094 104.882 69.6094C104.372 69.6094 103.935 69.7178 103.572 69.9346C103.209 70.1514 102.927 70.4619 102.728 70.8662C102.535 71.2705 102.438 71.7539 102.438 72.3164H100.285C100.285 71.3906 100.472 70.582 100.847 69.8906C101.222 69.1992 101.756 68.6602 102.447 68.2734C103.138 67.8867 103.95 67.6934 104.882 67.6934C105.755 67.6934 106.528 67.8633 107.202 68.2031C107.876 68.5371 108.403 69.0059 108.784 69.6094C109.171 70.2129 109.364 70.9219 109.364 71.7363C109.364 72.3281 109.253 72.876 109.03 73.3799C108.807 73.8779 108.482 74.3672 108.054 74.8477C107.627 75.3281 107.102 75.8408 106.481 76.3857L103.458 79.0664V79.084H109.426V81H100.294ZM116.079 81.2109C115.293 81.2109 114.593 81.0703 113.978 80.7891C113.369 80.502 112.85 80.0889 112.422 79.5498C111.995 79.0049 111.669 78.3398 111.447 77.5547C111.23 76.7695 111.121 75.8701 111.121 74.8564C111.121 73.7725 111.227 72.791 111.438 71.9121C111.655 71.0332 111.974 70.2803 112.396 69.6533C112.824 69.0205 113.357 68.5371 113.996 68.2031C114.634 67.8633 115.375 67.6934 116.219 67.6934C117.057 67.6934 117.789 67.8516 118.416 68.168C119.049 68.4844 119.556 68.918 119.937 69.4688C120.324 70.0195 120.555 70.6523 120.631 71.3672H118.434C118.329 70.8164 118.085 70.377 117.704 70.0488C117.329 69.7207 116.84 69.5566 116.237 69.5566C115.569 69.5566 115.015 69.7441 114.576 70.1191C114.142 70.4883 113.817 71.0039 113.6 71.666C113.389 72.3223 113.284 73.0869 113.284 73.96H113.301C113.512 73.626 113.779 73.3418 114.101 73.1074C114.423 72.873 114.784 72.6943 115.182 72.5713C115.586 72.4424 116.017 72.3779 116.474 72.3779C117.3 72.3779 118.036 72.5684 118.68 72.9492C119.33 73.3301 119.84 73.8486 120.209 74.5049C120.579 75.1611 120.763 75.9082 120.763 76.7461C120.763 77.625 120.564 78.4014 120.165 79.0752C119.767 79.749 119.216 80.2734 118.513 80.6484C117.81 81.0234 116.998 81.2109 116.079 81.2109ZM116.07 79.3213C116.533 79.3213 116.952 79.21 117.327 78.9873C117.702 78.7588 117.997 78.4482 118.214 78.0557C118.437 77.6631 118.548 77.2266 118.548 76.7461C118.548 76.2656 118.44 75.835 118.223 75.4541C118.012 75.0674 117.722 74.7627 117.353 74.54C116.984 74.3174 116.565 74.2061 116.096 74.2061C115.75 74.2061 115.425 74.2705 115.121 74.3994C114.822 74.5283 114.558 74.71 114.329 74.9443C114.101 75.1729 113.922 75.4424 113.793 75.7529C113.664 76.0635 113.6 76.3975 113.6 76.7549C113.6 77.2354 113.708 77.6719 113.925 78.0645C114.148 78.4512 114.444 78.7588 114.813 78.9873C115.188 79.21 115.607 79.3213 116.07 79.3213ZM121.747 83.6543L122.441 78.9697H124.63L123.32 83.6543H121.747ZM135.15 81.2109C134.318 81.2109 133.582 81.0527 132.944 80.7363C132.305 80.4199 131.792 79.9863 131.406 79.4355C131.019 78.8789 130.787 78.2461 130.711 77.5371H132.909C133.014 78.0879 133.257 78.5273 133.638 78.8555C134.025 79.1836 134.52 79.3477 135.123 79.3477C135.797 79.3477 136.351 79.1631 136.784 78.7939C137.218 78.4189 137.543 77.9004 137.76 77.2383C137.977 76.5762 138.085 75.8115 138.085 74.9443H138.068C137.857 75.2783 137.593 75.5596 137.277 75.7881C136.96 76.0166 136.6 76.1895 136.196 76.3066C135.797 76.4238 135.369 76.4824 134.912 76.4824C134.092 76.4824 133.357 76.2949 132.706 75.9199C132.062 75.5449 131.552 75.0293 131.177 74.373C130.808 73.7168 130.623 72.9697 130.623 72.1318C130.623 71.2529 130.823 70.4795 131.221 69.8115C131.619 69.1436 132.17 68.625 132.873 68.2559C133.582 67.8809 134.394 67.6934 135.308 67.6934C136.099 67.6934 136.799 67.8369 137.409 68.124C138.024 68.4053 138.542 68.8184 138.964 69.3633C139.392 69.9023 139.714 70.5645 139.931 71.3496C140.154 72.1348 140.265 73.0342 140.265 74.0479C140.265 75.1318 140.157 76.1133 139.94 76.9922C139.723 77.8711 139.401 78.627 138.973 79.2598C138.545 79.8867 138.012 80.3701 137.373 80.71C136.735 81.0439 135.993 81.2109 135.15 81.2109ZM135.29 74.6543C135.642 74.6543 135.967 74.5898 136.266 74.4609C136.571 74.332 136.834 74.1533 137.057 73.9248C137.285 73.6963 137.464 73.4297 137.593 73.125C137.722 72.8145 137.786 72.4805 137.786 72.123C137.786 71.6426 137.675 71.2119 137.452 70.8311C137.236 70.4443 136.94 70.1396 136.565 69.917C136.196 69.6943 135.783 69.583 135.326 69.583C134.863 69.583 134.444 69.6943 134.069 69.917C133.694 70.1396 133.395 70.4443 133.172 70.8311C132.95 71.2178 132.838 71.6514 132.838 72.1318C132.838 72.6123 132.947 73.043 133.163 73.4238C133.38 73.8047 133.673 74.1064 134.042 74.3291C134.411 74.5459 134.827 74.6543 135.29 74.6543ZM143.394 79.0137C143.019 79.0137 142.696 78.8818 142.427 78.6182C142.163 78.3486 142.031 78.0264 142.031 77.6514C142.031 77.2705 142.163 76.9482 142.427 76.6846C142.696 76.4209 143.019 76.2891 143.394 76.2891C143.774 76.2891 144.097 76.4209 144.36 76.6846C144.624 76.9482 144.756 77.2705 144.756 77.6514C144.756 78.0264 144.624 78.3486 144.36 78.6182C144.097 78.8818 143.774 79.0137 143.394 79.0137ZM143.394 72.624C143.019 72.624 142.696 72.4922 142.427 72.2285C142.163 71.959 142.031 71.6367 142.031 71.2617C142.031 70.8809 142.163 70.5586 142.427 70.2949C142.696 70.0312 143.019 69.8994 143.394 69.8994C143.774 69.8994 144.097 70.0312 144.36 70.2949C144.624 70.5586 144.756 70.8809 144.756 71.2617C144.756 71.6367 144.624 71.959 144.36 72.2285C144.097 72.4922 143.774 72.624 143.394 72.624ZM151.646 67.9043V81H149.405V70.1016H149.387L146.25 72.1318V70.0049L149.502 67.9043H151.646ZM158.862 67.9043V81H156.62V70.1016H156.603L153.465 72.1318V70.0049L156.717 67.9043H158.862ZM164.864 81L169.54 67.9043H172.458L177.116 81H174.558L172.264 74.1182C172.036 73.3916 171.795 72.6211 171.543 71.8066C171.292 70.9863 171.004 70.0195 170.682 68.9062H171.324C171.001 70.0195 170.711 70.9863 170.454 71.8066C170.202 72.6211 169.956 73.3916 169.715 74.1182L167.36 81H164.864ZM167.641 77.8711V75.9639H174.338V77.8711H167.641ZM178.68 81V67.9043H182.02L184.569 74.7861C184.656 75.0381 184.756 75.3428 184.867 75.7002C184.985 76.0576 185.105 76.4326 185.228 76.8252C185.351 77.2178 185.465 77.5898 185.57 77.9414C185.682 78.293 185.77 78.5859 185.834 78.8203H185.263C185.327 78.5859 185.412 78.293 185.518 77.9414C185.623 77.5898 185.737 77.2178 185.861 76.8252C185.984 76.4326 186.101 76.0576 186.212 75.7002C186.329 75.3428 186.429 75.0381 186.511 74.7861L189.016 67.9043H192.373V81H190.088V74.3203C190.088 74.0332 190.091 73.7021 190.097 73.3271C190.103 72.9463 190.111 72.5479 190.123 72.1318C190.141 71.71 190.152 71.2852 190.158 70.8574C190.17 70.4238 190.179 70.0107 190.185 69.6182H190.475C190.334 70.0635 190.194 70.5146 190.053 70.9717C189.912 71.4229 189.775 71.8594 189.64 72.2812C189.505 72.6973 189.379 73.0811 189.262 73.4326C189.151 73.7783 189.054 74.0742 188.972 74.3203L186.476 81H184.577L182.064 74.3203C181.982 74.0742 181.879 73.7783 181.756 73.4326C181.639 73.0811 181.513 72.6973 181.378 72.2812C181.243 71.8594 181.103 71.4229 180.956 70.9717C180.81 70.5146 180.663 70.0635 180.517 69.6182H180.868C180.88 70.0107 180.889 70.4238 180.895 70.8574C180.906 71.2852 180.918 71.71 180.93 72.1318C180.942 72.5479 180.95 72.9463 180.956 73.3271C180.962 73.7021 180.965 74.0332 180.965 74.3203V81H178.68Z" fill="black"/>
<path d="M27 109H298" stroke="#F2F6F5" stroke-width="13" stroke-linecap="round"/>
<path d="M27 133H180.012" stroke="#F2F6F5" stroke-width="13" stroke-linecap="round"/>
<path d="M27 157H250.012" stroke="#F2F6F5" stroke-width="13" stroke-linecap="round"/>
<rect x="76.5" y="185" width="208" height="30" rx="12" fill="#2E2C2A"/>
<path d="M89.0781 203V197.18H92.8633V197.805H89.7812V199.707H92.6367V200.332H89.7812V202.375H92.8633V203H89.0781ZM94.4569 200.586V203H93.7928V198.875H94.4412V199.875H94.2537C94.3892 199.503 94.5767 199.23 94.8162 199.059C95.0584 198.884 95.3423 198.797 95.6678 198.797C95.9465 198.797 96.2004 198.858 96.4295 198.98C96.6587 199.1 96.841 199.281 96.9764 199.523C97.1144 199.766 97.1834 200.07 97.1834 200.438V203H96.5194V200.484C96.5194 200.128 96.4334 199.859 96.2616 199.68C96.0923 199.497 95.8527 199.406 95.5428 199.406C95.3423 199.406 95.16 199.447 94.9959 199.527C94.8319 199.608 94.7004 199.736 94.6014 199.91C94.5051 200.082 94.4569 200.307 94.4569 200.586Z" fill="white"/>
<path d="M103.5 199.001L106.103 200.893C106.191 200.956 106.309 200.956 106.397 200.893L109 199" stroke="white" stroke-linecap="round"/>
<path d="M141.328 203V197.18H142.031V202.375H144.836V203H141.328ZM145.683 203V198.875H146.347V203H145.683ZM146.015 198.07C145.89 198.07 145.784 198.026 145.695 197.938C145.607 197.849 145.562 197.742 145.562 197.617C145.562 197.492 145.607 197.385 145.695 197.297C145.784 197.208 145.89 197.164 146.015 197.164C146.14 197.164 146.247 197.208 146.336 197.297C146.424 197.385 146.469 197.492 146.469 197.617C146.469 197.742 146.424 197.849 146.336 197.938C146.247 198.026 146.14 198.07 146.015 198.07ZM148.929 203.094C148.635 203.094 148.368 203.046 148.129 202.949C147.889 202.853 147.695 202.707 147.547 202.512C147.398 202.314 147.315 202.065 147.297 201.766H147.953C147.976 202.01 148.07 202.198 148.234 202.328C148.398 202.458 148.625 202.523 148.914 202.523C149.2 202.523 149.425 202.464 149.59 202.344C149.756 202.224 149.84 202.073 149.84 201.891C149.84 201.734 149.782 201.609 149.668 201.516C149.553 201.422 149.403 201.354 149.218 201.312L148.554 201.156C148.172 201.065 147.881 200.922 147.683 200.727C147.488 200.531 147.39 200.284 147.39 199.984C147.39 199.75 147.453 199.543 147.578 199.363C147.705 199.181 147.881 199.039 148.105 198.938C148.332 198.833 148.592 198.781 148.886 198.781C149.173 198.781 149.429 198.836 149.656 198.945C149.885 199.052 150.066 199.204 150.199 199.402C150.334 199.6 150.406 199.836 150.414 200.109H149.765C149.763 199.891 149.682 199.71 149.523 199.566C149.364 199.423 149.152 199.352 148.886 199.352C148.634 199.352 148.432 199.413 148.281 199.535C148.13 199.658 148.054 199.807 148.054 199.984C148.054 200.141 148.112 200.267 148.226 200.363C148.341 200.457 148.497 200.527 148.695 200.574L149.359 200.73C149.755 200.824 150.045 200.965 150.23 201.152C150.415 201.337 150.508 201.578 150.508 201.875C150.508 202.13 150.438 202.349 150.3 202.531C150.162 202.714 149.974 202.853 149.734 202.949C149.497 203.046 149.229 203.094 148.929 203.094ZM153.328 198.875V199.445H151.093V198.875H153.328ZM151.828 197.75H152.492V202C152.492 202.159 152.524 202.271 152.589 202.336C152.657 202.398 152.776 202.43 152.945 202.43C153.005 202.43 153.069 202.43 153.136 202.43C153.207 202.43 153.27 202.43 153.328 202.43V203C153.26 203 153.186 203 153.105 203C153.024 203 152.95 203 152.882 203C152.528 203 152.264 202.923 152.089 202.77C151.915 202.613 151.828 202.38 151.828 202.07V197.75ZM155.804 203.094C155.4 203.094 155.055 203.001 154.769 202.816C154.485 202.632 154.268 202.378 154.117 202.055C153.966 201.729 153.89 201.359 153.89 200.945C153.89 200.526 153.969 200.154 154.128 199.828C154.287 199.503 154.507 199.247 154.788 199.062C155.07 198.875 155.393 198.781 155.757 198.781C156.044 198.781 156.301 198.833 156.531 198.938C156.762 199.042 156.96 199.19 157.124 199.383C157.288 199.576 157.413 199.805 157.499 200.07C157.588 200.333 157.632 200.625 157.632 200.945V201.129H154.242V200.559H157.261L156.976 200.758C156.976 200.477 156.925 200.233 156.824 200.027C156.725 199.819 156.584 199.659 156.402 199.547C156.219 199.432 156.005 199.375 155.757 199.375C155.512 199.375 155.299 199.432 155.117 199.547C154.937 199.659 154.796 199.819 154.695 200.027C154.596 200.233 154.546 200.477 154.546 200.758V201.039C154.546 201.323 154.594 201.574 154.691 201.793C154.79 202.012 154.933 202.184 155.12 202.309C155.308 202.431 155.536 202.492 155.804 202.492C155.999 202.492 156.171 202.462 156.32 202.402C156.468 202.34 156.591 202.254 156.687 202.145C156.786 202.035 156.856 201.909 156.898 201.766H157.562C157.51 202.029 157.402 202.26 157.238 202.461C157.074 202.659 156.868 202.814 156.62 202.926C156.376 203.038 156.104 203.094 155.804 203.094ZM159.214 200.586V203H158.55V198.875H159.198V199.875H159.011C159.146 199.503 159.334 199.23 159.573 199.059C159.816 198.884 160.099 198.797 160.425 198.797C160.704 198.797 160.958 198.858 161.187 198.98C161.416 199.1 161.598 199.281 161.734 199.523C161.872 199.766 161.941 200.07 161.941 200.438V203H161.277V200.484C161.277 200.128 161.191 199.859 161.019 199.68C160.849 199.497 160.61 199.406 160.3 199.406C160.099 199.406 159.917 199.447 159.753 199.527C159.589 199.608 159.458 199.736 159.359 199.91C159.262 200.082 159.214 200.307 159.214 200.586ZM163.085 203V198.875H163.749V203H163.085ZM163.417 198.07C163.292 198.07 163.185 198.026 163.097 197.938C163.008 197.849 162.964 197.742 162.964 197.617C162.964 197.492 163.008 197.385 163.097 197.297C163.185 197.208 163.292 197.164 163.417 197.164C163.542 197.164 163.649 197.208 163.737 197.297C163.826 197.385 163.87 197.492 163.87 197.617C163.87 197.742 163.826 197.849 163.737 197.938C163.649 198.026 163.542 198.07 163.417 198.07ZM165.558 200.586V203H164.893V198.875H165.542V199.875H165.354C165.49 199.503 165.677 199.23 165.917 199.059C166.159 198.884 166.443 198.797 166.768 198.797C167.047 198.797 167.301 198.858 167.53 198.98C167.759 199.1 167.942 199.281 168.077 199.523C168.215 199.766 168.284 200.07 168.284 200.438V203H167.62V200.484C167.62 200.128 167.534 199.859 167.362 199.68C167.193 199.497 166.953 199.406 166.643 199.406C166.443 199.406 166.261 199.447 166.097 199.527C165.933 199.608 165.801 199.736 165.702 199.91C165.606 200.082 165.558 200.307 165.558 200.586ZM171.155 204.688C170.845 204.688 170.565 204.639 170.315 204.543C170.068 204.449 169.865 204.309 169.706 204.121C169.55 203.936 169.454 203.708 169.421 203.438H170.1C170.139 203.586 170.208 203.708 170.307 203.805C170.406 203.904 170.527 203.978 170.671 204.027C170.816 204.077 170.978 204.102 171.155 204.102C171.514 204.102 171.797 204.005 172.003 203.812C172.208 203.622 172.311 203.352 172.311 203V202.375H172.307C172.206 202.534 172.089 202.665 171.956 202.77C171.823 202.874 171.677 202.951 171.518 203C171.359 203.052 171.189 203.078 171.007 203.078C170.65 203.078 170.336 202.988 170.065 202.809C169.797 202.626 169.589 202.375 169.44 202.055C169.292 201.732 169.218 201.359 169.218 200.938C169.218 200.513 169.292 200.141 169.44 199.82C169.589 199.497 169.797 199.246 170.065 199.066C170.336 198.887 170.65 198.797 171.007 198.797C171.186 198.797 171.357 198.822 171.518 198.871C171.682 198.921 171.832 198.999 171.968 199.105C172.106 199.212 172.221 199.35 172.315 199.52H172.319V198.875H172.968V203C172.968 203.406 172.883 203.733 172.714 203.98C172.547 204.228 172.326 204.408 172.05 204.52C171.773 204.632 171.475 204.688 171.155 204.688ZM171.108 202.48C171.363 202.48 171.585 202.417 171.772 202.289C171.96 202.161 172.104 201.982 172.206 201.75C172.307 201.518 172.358 201.247 172.358 200.938C172.358 200.625 172.307 200.353 172.206 200.121C172.104 199.889 171.96 199.71 171.772 199.582C171.585 199.454 171.363 199.391 171.108 199.391C170.871 199.391 170.66 199.449 170.475 199.566C170.293 199.684 170.15 199.857 170.046 200.086C169.941 200.315 169.889 200.599 169.889 200.938C169.889 201.273 169.941 201.556 170.046 201.785C170.15 202.014 170.293 202.188 170.475 202.305C170.66 202.422 170.871 202.48 171.108 202.48Z" fill="white"/>
<circle cx="182.75" cy="200" r="2" fill="#FF4500"/>
<path d="M194.328 203.094C193.898 203.094 193.526 202.971 193.211 202.727C192.898 202.479 192.656 202.132 192.484 201.684C192.312 201.236 192.227 200.706 192.227 200.094C192.227 199.479 192.312 198.948 192.484 198.5C192.656 198.049 192.898 197.702 193.211 197.457C193.526 197.21 193.898 197.086 194.328 197.086C194.758 197.086 195.13 197.21 195.445 197.457C195.76 197.702 196.003 198.049 196.172 198.5C196.344 198.948 196.43 199.479 196.43 200.094C196.43 200.706 196.344 201.236 196.172 201.684C196.003 202.132 195.76 202.479 195.445 202.727C195.13 202.971 194.758 203.094 194.328 203.094ZM194.328 202.469C194.625 202.469 194.88 202.374 195.094 202.184C195.31 201.991 195.475 201.717 195.59 201.363C195.707 201.009 195.766 200.586 195.766 200.094C195.766 199.599 195.707 199.174 195.59 198.82C195.475 198.464 195.31 198.19 195.094 198C194.88 197.807 194.625 197.711 194.328 197.711C194.031 197.711 193.775 197.807 193.559 198C193.345 198.19 193.18 198.464 193.062 198.82C192.948 199.174 192.891 199.599 192.891 200.094C192.891 200.586 192.948 201.009 193.062 201.363C193.18 201.717 193.345 201.991 193.559 202.184C193.775 202.374 194.031 202.469 194.328 202.469ZM199.644 203.094C199.215 203.094 198.842 202.971 198.527 202.727C198.215 202.479 197.972 202.132 197.801 201.684C197.629 201.236 197.543 200.706 197.543 200.094C197.543 199.479 197.629 198.948 197.801 198.5C197.972 198.049 198.215 197.702 198.527 197.457C198.842 197.21 199.215 197.086 199.644 197.086C200.074 197.086 200.446 197.21 200.762 197.457C201.077 197.702 201.319 198.049 201.488 198.5C201.66 198.948 201.746 199.479 201.746 200.094C201.746 200.706 201.66 201.236 201.488 201.684C201.319 202.132 201.077 202.479 200.762 202.727C200.446 202.971 200.074 203.094 199.644 203.094ZM199.644 202.469C199.941 202.469 200.196 202.374 200.41 202.184C200.626 201.991 200.792 201.717 200.906 201.363C201.023 201.009 201.082 200.586 201.082 200.094C201.082 199.599 201.023 199.174 200.906 198.82C200.792 198.464 200.626 198.19 200.41 198C200.196 197.807 199.941 197.711 199.644 197.711C199.347 197.711 199.091 197.807 198.875 198C198.661 198.19 198.496 198.464 198.379 198.82C198.264 199.174 198.207 199.599 198.207 200.094C198.207 200.586 198.264 201.009 198.379 201.363C198.496 201.717 198.661 201.991 198.875 202.184C199.091 202.374 199.347 202.469 199.644 202.469ZM203.476 202.125C203.341 202.125 203.225 202.078 203.129 201.984C203.035 201.888 202.988 201.772 202.988 201.637C202.988 201.499 203.035 201.383 203.129 201.289C203.225 201.195 203.341 201.148 203.476 201.148C203.614 201.148 203.73 201.195 203.824 201.289C203.918 201.383 203.965 201.499 203.965 201.637C203.965 201.772 203.918 201.888 203.824 201.984C203.73 202.078 203.614 202.125 203.476 202.125ZM203.476 199.062C203.341 199.062 203.225 199.016 203.129 198.922C203.035 198.826 202.988 198.71 202.988 198.574C202.988 198.436 203.035 198.32 203.129 198.227C203.225 198.133 203.341 198.086 203.476 198.086C203.614 198.086 203.73 198.133 203.824 198.227C203.918 198.32 203.965 198.436 203.965 198.574C203.965 198.71 203.918 198.826 203.824 198.922C203.73 199.016 203.614 199.062 203.476 199.062ZM205.55 203V202.375H209.148V203H205.55ZM207.75 197.18V203H207.07V197.906H207.066L205.617 198.867V198.148L207.07 197.18H207.75ZM210.867 203V202.375H214.464V203H210.867ZM213.066 197.18V203H212.386V197.906H212.382L210.933 198.867V198.148L212.386 197.18H213.066Z" fill="white"/>
<rect x="247.5" y="191" width="31" height="18" rx="6" fill="#FF4500"/>
<path d="M257.031 203.093C256.57 203.093 256.173 203.014 255.84 202.857C255.508 202.7 255.251 202.474 255.071 202.18C254.89 201.886 254.8 201.537 254.8 201.132H255.658C255.661 201.385 255.716 201.603 255.825 201.786C255.933 201.966 256.089 202.104 256.293 202.199C256.499 202.295 256.745 202.343 257.031 202.343C257.294 202.343 257.521 202.305 257.712 202.23C257.905 202.156 258.056 202.05 258.164 201.913C258.273 201.774 258.327 201.61 258.327 201.422C258.327 201.275 258.289 201.148 258.215 201.039C258.142 200.928 258.025 200.832 257.863 200.749C257.703 200.667 257.489 200.595 257.221 200.533L256.59 200.382C256.008 200.245 255.582 200.052 255.314 199.802C255.049 199.552 254.916 199.227 254.916 198.827C254.916 198.49 255.001 198.196 255.171 197.946C255.341 197.693 255.581 197.497 255.89 197.358C256.2 197.216 256.559 197.145 256.969 197.145C257.384 197.145 257.744 197.219 258.048 197.366C258.353 197.512 258.588 197.721 258.756 197.992C258.926 198.263 259.018 198.586 259.031 198.963H258.199C258.178 198.63 258.057 198.37 257.836 198.181C257.614 197.991 257.321 197.895 256.958 197.895C256.728 197.895 256.523 197.934 256.343 198.011C256.165 198.086 256.024 198.191 255.921 198.325C255.821 198.456 255.771 198.609 255.771 198.785C255.771 198.924 255.808 199.045 255.883 199.148C255.957 199.251 256.075 199.342 256.235 199.419C256.397 199.496 256.61 199.567 256.873 199.632L257.495 199.779C257.784 199.848 258.034 199.932 258.246 200.03C258.46 200.128 258.635 200.243 258.771 200.374C258.911 200.503 259.014 200.651 259.081 200.819C259.15 200.984 259.185 201.17 259.185 201.376C259.185 201.721 259.096 202.023 258.918 202.281C258.741 202.539 258.49 202.738 258.168 202.88C257.846 203.022 257.467 203.093 257.031 203.093ZM262.062 198.916V199.589H259.696V198.916H262.062ZM260.415 197.802H261.231V201.921C261.231 202.071 261.262 202.176 261.324 202.238C261.388 202.297 261.502 202.327 261.664 202.327C261.726 202.327 261.794 202.327 261.869 202.327C261.944 202.327 262.008 202.327 262.062 202.327V203C261.995 203 261.914 203 261.819 203C261.726 203 261.636 203 261.548 203C261.164 203 260.879 202.92 260.693 202.76C260.508 202.598 260.415 202.353 260.415 202.025V197.802ZM264.553 203.093C264.163 203.093 263.822 203.003 263.528 202.822C263.234 202.642 263.004 202.392 262.839 202.072C262.677 201.752 262.596 201.384 262.596 200.966C262.596 200.543 262.677 200.172 262.839 199.852C263.004 199.53 263.234 199.278 263.528 199.098C263.822 198.915 264.163 198.823 264.553 198.823C264.942 198.823 265.282 198.915 265.574 199.098C265.867 199.278 266.096 199.53 266.258 199.852C266.423 200.172 266.506 200.543 266.506 200.966C266.506 201.384 266.423 201.752 266.258 202.072C266.096 202.392 265.867 202.642 265.574 202.822C265.282 203.003 264.942 203.093 264.553 203.093ZM264.553 202.389C264.785 202.389 264.984 202.331 265.152 202.215C265.322 202.096 265.452 201.93 265.543 201.716C265.635 201.502 265.682 201.252 265.682 200.966C265.682 200.672 265.635 200.418 265.543 200.204C265.452 199.99 265.322 199.824 265.152 199.705C264.984 199.587 264.785 199.527 264.553 199.527C264.321 199.527 264.119 199.587 263.949 199.705C263.782 199.821 263.652 199.987 263.559 200.204C263.468 200.418 263.423 200.672 263.423 200.966C263.423 201.255 263.468 201.506 263.559 201.72C263.652 201.931 263.782 202.096 263.949 202.215C264.117 202.331 264.318 202.389 264.553 202.389ZM267.387 204.616V198.916H268.188V199.504H268.199C268.284 199.355 268.391 199.231 268.52 199.133C268.652 199.035 268.797 198.961 268.957 198.912C269.12 198.861 269.288 198.835 269.464 198.835C269.817 198.835 270.125 198.925 270.388 199.106C270.654 199.284 270.86 199.532 271.007 199.852C271.156 200.169 271.231 200.538 271.231 200.958C271.231 201.378 271.158 201.748 271.011 202.068C270.864 202.385 270.657 202.634 270.392 202.814C270.126 202.992 269.816 203.081 269.46 203.081C269.285 203.081 269.118 203.055 268.961 203.004C268.806 202.952 268.666 202.875 268.54 202.772C268.413 202.669 268.305 202.54 268.215 202.385H268.203V204.616H267.387ZM269.294 202.377C269.515 202.377 269.709 202.323 269.874 202.215C270.039 202.104 270.168 201.944 270.26 201.735C270.356 201.524 270.403 201.265 270.403 200.958C270.403 200.649 270.356 200.388 270.26 200.177C270.168 199.966 270.039 199.806 269.874 199.697C269.709 199.589 269.515 199.535 269.294 199.535C269.062 199.535 268.859 199.594 268.686 199.713C268.516 199.829 268.384 199.994 268.288 200.208C268.195 200.419 268.149 200.669 268.149 200.958C268.149 201.242 268.195 201.491 268.288 201.704C268.384 201.918 268.516 202.085 268.686 202.203C268.859 202.319 269.062 202.377 269.294 202.377Z" fill="white"/>
<defs>
<radialGradient id="paint0_radial_898_752" cx="0" cy="0" r="1" gradientUnits="userSpaceOnUse" gradientTransform="translate(334 28.0117) rotate(90) scale(8.6133 8.61329)">
<stop stop-color="#619BFF"/>
<stop offset="0.341345" stop-color="#619BFF"/>
<stop offset="1" stop-color="#E8D178"/>
</radialGradient>
</defs>
</svg>
